<svg xmlns="http://www.w3.org/2000/svg" xmlns:xlink="http://www.w3.org/1999/xlink" fill="none" version="1.1" width="30" height="30" viewBox="0 0 30 30"><defs><clipPath id="master_svg0_1191_005755"><rect x="0" y="0" width="30" height="30" rx="0"/></clipPath></defs><g clip-path="url(#master_svg0_1191_005755)"><g><path d="M10.25,9.27069L10.25,22L11.75,22L11.75,9.27069Q11.75,8.635349999999999,12.3767,8.53089L21.3767,7.0309Q21.7196,6.973751,21.9848,7.19843Q22.25,7.4231,22.25,7.77069L22.25,20L23.75,20L23.75,7.77069Q23.75,6.727918,22.9543,6.0538958Q22.1587,5.379874,21.1301,5.551304L12.1301,7.0512999999999995Q11.31641,7.18692,10.783205,7.81635Q10.25,8.44577,10.25,9.27069Z" fill-rule="evenodd" fill="#888888" fill-opacity="1"/></g><g><path d="M23.1233,11.739795Q23.188499999999998,11.728935,23.250700000000002,11.706852Q23.313000000000002,11.684769,23.3704,11.652142Q23.4279,11.619516,23.4787,11.577351Q23.529600000000002,11.535186,23.5723,11.484781Q23.615000000000002,11.434376,23.6482,11.377283Q23.6814,11.32019,23.7042,11.258168Q23.7269,11.196145,23.738500000000002,11.131102Q23.75,11.0660597,23.75,11Q23.75,10.9261315,23.735599999999998,10.853682Q23.7212,10.781233,23.6929,10.712987Q23.6646,10.644742,23.6236,10.583322Q23.5826,10.521903,23.5303,10.46967Q23.478099999999998,10.417437,23.4167,10.376398Q23.3553,10.335359,23.287,10.30709Q23.2188,10.278822,23.1463,10.264410999999999Q23.073900000000002,10.25,23,10.25Q22.9379,10.25,22.8767,10.260205L10.876701,12.2602Q10.81154,12.27106,10.749281,12.29315Q10.687021,12.31523,10.629581,12.34786Q10.57214,12.38048,10.521287,12.42265Q10.470434000000001,12.46481,10.427735,12.51522Q10.385036,12.56562,10.351805,12.62272Q10.318574,12.67981,10.295834,12.74183Q10.273095,12.80385,10.261547,12.8689Q10.25,12.93394,10.25,13Q10.25,13.07387,10.264410999999999,13.14632Q10.278822,13.21877,10.30709,13.28701Q10.335359,13.35526,10.376398,13.41668Q10.417437,13.4781,10.46967,13.53033Q10.521903,13.58256,10.583322,13.6236Q10.644742,13.66464,10.712987,13.69291Q10.781233,13.72118,10.853682,13.73559Q10.9261315,13.75,11,13.75Q11.0620719,13.75,11.123299,13.739799999999999L23.1233,11.739795L23.1233,11.739795Z" fill-rule="evenodd" fill="#888888" fill-opacity="1"/></g><g><ellipse cx="9" cy="22" rx="2" ry="2" fill-opacity="0" stroke-opacity="1" stroke="#888888" fill="none" stroke-width="1.5"/></g><g><ellipse cx="21" cy="20" rx="2" ry="2" fill-opacity="0" stroke-opacity="1" stroke="#888888" fill="none" stroke-width="1.5"/></g></g></svg>