<svg xmlns="http://www.w3.org/2000/svg" xmlns:xlink="http://www.w3.org/1999/xlink" fill="none" version="1.1" width="30" height="30" viewBox="0 0 30 30"><defs><clipPath id="master_svg0_1191_005688"><rect x="0" y="0" width="30" height="30" rx="0"/></clipPath></defs><g clip-path="url(#master_svg0_1191_005688)"><g><rect x="6" y="7" width="18" height="4" rx="1" fill-opacity="0" stroke-opacity="1" stroke="#888888" fill="none" stroke-width="1.5"/></g><g><rect x="6" y="19" width="18" height="4" rx="1" fill-opacity="0" stroke-opacity="1" stroke="#888888" fill="none" stroke-width="1.5"/></g><g><path d="M4,14.25L26,14.25Q26.0739,14.25,26.1463,14.264410999999999Q26.2188,14.278822,26.287,14.30709Q26.3553,14.335359,26.4167,14.376398Q26.4781,14.417437,26.5303,14.46967Q26.5826,14.521903,26.6236,14.583322Q26.6646,14.644742,26.6929,14.712987Q26.7212,14.781233,26.7356,14.853682Q26.75,14.9261315,26.75,15Q26.75,15.0738685,26.7356,15.146318Q26.7212,15.218767,26.6929,15.287013Q26.6646,15.355258,26.6236,15.416678Q26.5826,15.478097,26.5303,15.53033Q26.4781,15.582563,26.4167,15.623602Q26.3553,15.664641,26.287,15.69291Q26.2188,15.721178,26.1463,15.735589000000001Q26.0739,15.75,26,15.75L4,15.75Q3.9261315,15.75,3.853682,15.735589000000001Q3.781233,15.721178,3.712987,15.69291Q3.644742,15.664641,3.583322,15.623602Q3.521903,15.582563,3.46967,15.53033Q3.417437,15.478097,3.376398,15.416678Q3.335359,15.355258,3.30709,15.287013Q3.278822,15.218767,3.264411,15.146318Q3.25,15.0738685,3.25,15Q3.25,14.9261315,3.264411,14.853682Q3.278822,14.781233,3.30709,14.712987Q3.335359,14.644742,3.376398,14.583322Q3.417437,14.521903,3.46967,14.46967Q3.521903,14.417437,3.583322,14.376398Q3.644742,14.335359,3.712987,14.30709Q3.781233,14.278822,3.853682,14.264410999999999Q3.9261315,14.25,4,14.25Z" fill-rule="evenodd" fill="#888888" fill-opacity="1"/></g></g></svg>