<svg xmlns="http://www.w3.org/2000/svg" xmlns:xlink="http://www.w3.org/1999/xlink" fill="none" version="1.1" width="30" height="30" viewBox="0 0 30 30"><defs><clipPath id="master_svg0_1361_85584"><rect x="0" y="0" width="30" height="30" rx="0"/></clipPath></defs><g clip-path="url(#master_svg0_1361_85584)"><g><path d="M6.25,8.5L6.25,23.5Q6.25,24.432,6.9090097,25.091Q7.568019,25.75,8.5,25.75L21.5,25.75Q22.432000000000002,25.75,23.091,25.091Q23.75,24.432,23.75,23.5L23.75,8.5Q23.75,7.568019,23.091,6.9090099Q22.432000000000002,6.25,21.5,6.25L8.5,6.25Q7.56802,6.25,6.9090098,6.9090099Q6.25,7.56802,6.25,8.5ZM8.5,24.25Q7.75,24.25,7.75,23.5L7.75,8.5Q7.75,7.75,8.5,7.75L21.5,7.75Q22.25,7.75,22.25,8.5L22.25,23.5Q22.25,24.25,21.5,24.25L8.5,24.25Z" fill-rule="evenodd" fill="#888888" fill-opacity="1"/></g><g><path d="M14.75,15.75L14.75,13Q14.75,11.860912,13.94454,11.0554563Q13.13909,10.25,12,10.25Q10.860913,10.25,10.0554563,11.0554563Q9.25,11.860913,9.25,13Q9.25,14.13909,10.0554563,14.94454Q10.860912,15.75,12,15.75L14.75,15.75ZM13.25,14.25L13.25,13Q13.25,12.48223,12.88388,12.11612Q12.51777,11.75,12,11.75Q11.48223,11.75,11.11612,12.11612Q10.75,12.48223,10.75,13Q10.75,13.51777,11.11612,13.88388Q11.48223,14.25,12,14.25L13.25,14.25Z" fill-rule="evenodd" fill="#888888" fill-opacity="1"/></g><g transform="matrix(1,0,0,-1,0,42)"><path d="M14.75,25.75L14.75,23Q14.75,21.860912,13.94454,21.0554563Q13.13909,20.25,12,20.25Q10.860913,20.25,10.0554563,21.0554563Q9.25,21.860913,9.25,23Q9.25,24.13909,10.0554563,24.94454Q10.860912,25.75,12,25.75L14.75,25.75ZM13.25,24.25L13.25,23Q13.25,22.48223,12.88388,22.11612Q12.51777,21.75,12,21.75Q11.48223,21.75,11.11612,22.11612Q10.75,22.48223,10.75,23Q10.75,23.51777,11.11612,23.88388Q11.48223,24.25,12,24.25L13.25,24.25Z" fill-rule="evenodd" fill="#888888" fill-opacity="1"/></g><g transform="matrix(-1,0,0,1,40,0)"><path d="M24.75,15.75L24.75,13Q24.75,11.860912,23.94454,11.0554563Q23.13909,10.25,22,10.25Q20.860913,10.25,20.0554563,11.0554563Q19.25,11.860913,19.25,13Q19.25,14.13909,20.0554563,14.94454Q20.860912,15.75,22,15.75L24.75,15.75ZM23.25,14.25L23.25,13Q23.25,12.48223,22.88388,12.11612Q22.51777,11.75,22,11.75Q21.48223,11.75,21.11612,12.11612Q20.75,12.48223,20.75,13Q20.75,13.51777,21.11612,13.88388Q21.48223,14.25,22,14.25L23.25,14.25Z" fill-rule="evenodd" fill="#888888" fill-opacity="1"/></g><g transform="matrix(-1,0,0,-1,40,42)"><path d="M24.75,25.75L24.75,23Q24.75,21.860912,23.94454,21.0554563Q23.13909,20.25,22,20.25Q20.860913,20.25,20.0554563,21.0554563Q19.25,21.860913,19.25,23Q19.25,24.13909,20.0554563,24.94454Q20.860912,25.75,22,25.75L24.75,25.75ZM23.25,24.25L23.25,23Q23.25,22.48223,22.88388,22.11612Q22.51777,21.75,22,21.75Q21.48223,21.75,21.11612,22.11612Q20.75,22.48223,20.75,23Q20.75,23.51777,21.11612,23.88388Q21.48223,24.25,22,24.25L23.25,24.25Z" fill-rule="evenodd" fill="#888888" fill-opacity="1"/></g><g><path d="" fill="#888888" fill-opacity="1"/><path d="M10.661064,5.46385Q10.25,6.19275,10.25,7Q10.25,7.073869999999999,10.264410999999999,7.146319999999999Q10.278822,7.21877,10.30709,7.28701Q10.335359,7.3552599999999995,10.376398,7.4166799999999995Q10.417437,7.4780999999999995,10.46967,7.53033Q10.521903,7.58256,10.583322,7.6236Q10.644742,7.66464,10.712987,7.6929099999999995Q10.781233,7.72118,10.853682,7.73559Q10.9261315,7.75,11,7.75Q11.0738685,7.75,11.146318,7.73559Q11.218767,7.72118,11.287013,7.6929099999999995Q11.355258,7.66464,11.416678,7.6236Q11.478097,7.58256,11.53033,7.53033Q11.582563,7.4780999999999995,11.623602,7.4166799999999995Q11.664641,7.3552599999999995,11.69291,7.28701Q11.721178,7.21877,11.735589000000001,7.146319999999999Q11.75,7.073869999999999,11.75,7Q11.75,6.13236,12.62157,5.47868Q13.59315,4.75,15,4.75Q16.40685,4.75,17.37843,5.47868Q18.25,6.13236,18.25,7Q18.25,7.073869999999999,18.264409999999998,7.146319999999999Q18.27882,7.21877,18.30709,7.28701Q18.33536,7.3552599999999995,18.3764,7.4166799999999995Q18.41744,7.4780999999999995,18.46967,7.53033Q18.5219,7.58256,18.58332,7.6236Q18.64474,7.66464,18.712989999999998,7.6929099999999995Q18.78123,7.72118,18.85368,7.73559Q18.92613,7.75,19,7.75Q19.07387,7.75,19.14632,7.73559Q19.21877,7.72118,19.287010000000002,7.6929099999999995Q19.35526,7.66464,19.41668,7.6236Q19.478099999999998,7.58256,19.53033,7.53033Q19.58256,7.4780999999999995,19.6236,7.4166799999999995Q19.66464,7.3552599999999995,19.692909999999998,7.28701Q19.72118,7.21877,19.735590000000002,7.146319999999999Q19.75,7.073869999999999,19.75,7Q19.75,6.19275,19.33894,5.46385Q18.95799,4.788348,18.27843,4.27868Q16.90686,3.25,15,3.25Q13.09315,3.25,11.721573,4.27868Q11.042013,4.78835,10.661064,5.46385Z" fill-rule="evenodd" fill="#888888" fill-opacity="1"/></g></g></svg>