<svg xmlns="http://www.w3.org/2000/svg" xmlns:xlink="http://www.w3.org/1999/xlink" fill="none" version="1.1" width="30" height="30" viewBox="0 0 30 30"><defs><clipPath id="master_svg0_1191_005696"><rect x="0" y="0" width="30" height="30" rx="0"/></clipPath></defs><g clip-path="url(#master_svg0_1191_005696)"><g><path d="M4.75,9.5L4.75,12.232669999999999Q4.75,12.18914,4.731208,12.15815Q4.733618,12.16212,4.75602,12.17801Q4.858539,12.25071,4.985522,12.25004L4.998009,12.25Q6.1390899999999995,12.25,6.94454,13.05546Q7.75,13.86091,7.75,15Q7.75,16.13909,6.94454,16.94454Q6.1390899999999995,17.75,5,17.75L4.987449,17.749969999999998Q4.858538,17.749290000000002,4.75602,17.82199Q4.733618,17.837870000000002,4.731208,17.84185Q4.75,17.810859999999998,4.75,17.76733L4.75,20.5Q4.75,21.25,5.5,21.25L24.5,21.25Q25.25,21.25,25.25,20.5L25.25,17.76733Q25.25,17.810859999999998,25.2688,17.84185Q25.2664,17.83788,25.244,17.82199Q25.1415,17.749290000000002,25.0145,17.74996L25.0103,17.74998L25.0014,17.75Q23.8609,17.75,23.0555,16.94454Q22.25,16.13909,22.25,15Q22.25,13.86091,23.0555,13.05546Q23.8609,12.25,25,12.25L25.0083,12.25001L25.0139,12.25004Q25.1415,12.25071,25.244,12.17801Q25.2664,12.16212,25.2688,12.15815Q25.25,12.18914,25.25,12.232669999999999L25.25,9.5Q25.25,9.18934,25.0303,8.96967Q24.8107,8.75,24.5,8.75L5.5,8.75Q5.18934,8.75,4.96967,8.96967Q4.75,9.18934,4.75,9.5L3.25,9.5Q3.25,8.56802,3.9090096,7.9090098Q4.568019,7.25,5.5,7.25L24.5,7.25Q25.432,7.25,26.091,7.9090095Q26.75,8.56802,26.75,9.5L26.75,12.232669999999999Q26.75,12.94893,26.1116,13.4016Q25.6158,13.753219999999999,25.0072,13.75002L25.0056,13.75001L25,13.75Q24.4822,13.75,24.1161,14.116119999999999Q23.75,14.482230000000001,23.75,15Q23.75,15.517769999999999,24.1161,15.883880000000001Q24.4822,16.25,24.9986,16.25L25.0036,16.24999L25.0066,16.24998Q25.6158,16.24678,26.1116,16.598399999999998Q26.75,17.05107,26.75,17.76733L26.75,20.5Q26.75,21.432000000000002,26.091,22.091Q25.432,22.75,24.5,22.75L5.5,22.75Q4.56802,22.75,3.9090099,22.091Q3.25,21.432000000000002,3.25,20.5L3.25,17.76733Q3.25,17.05107,3.888362,16.598399999999998Q4.384231,16.24678,4.99149,16.249969999999998L5,16.25Q5.5177700000000005,16.25,5.8838799999999996,15.883880000000001Q6.25,15.517769999999999,6.25,15Q6.25,14.482230000000001,5.8838799999999996,14.116119999999999Q5.5177700000000005,13.75,5.00199,13.75L4.993417,13.75002Q4.384232,13.753219999999999,3.888363,13.4016Q3.25,12.94893,3.25,12.232669999999999L3.25,9.5L4.75,9.5Z" fill="#888888" fill-opacity="1"/></g><g><path d="M10,12.25L20,12.25Q20.073900000000002,12.25,20.1463,12.264410999999999Q20.2188,12.278822,20.287,12.30709Q20.3553,12.335359,20.4167,12.376398Q20.478099999999998,12.417437,20.5303,12.46967Q20.5826,12.521903,20.6236,12.583322Q20.6646,12.644742,20.6929,12.712987Q20.7212,12.781233,20.735599999999998,12.853682Q20.75,12.9261315,20.75,13Q20.75,13.0738685,20.735599999999998,13.146318Q20.7212,13.218767,20.6929,13.287013Q20.6646,13.355258,20.6236,13.416678Q20.5826,13.478097,20.5303,13.53033Q20.478099999999998,13.582563,20.4167,13.623602Q20.3553,13.664641,20.287,13.69291Q20.2188,13.721178,20.1463,13.735589000000001Q20.073900000000002,13.75,20,13.75L10,13.75Q9.9261315,13.75,9.853682,13.735589000000001Q9.781233,13.721178,9.712987,13.69291Q9.644742,13.664641,9.583322,13.623602Q9.521903,13.582563,9.46967,13.53033Q9.417437,13.478097,9.376398,13.416678Q9.335359,13.355258,9.30709,13.287013Q9.278822,13.218767,9.264410999999999,13.146318Q9.25,13.0738685,9.25,13Q9.25,12.9261315,9.264410999999999,12.853682Q9.278822,12.781233,9.30709,12.712987Q9.335359,12.644742,9.376398,12.583322Q9.417437,12.521903,9.46967,12.46967Q9.521903,12.417437,9.583322,12.376398Q9.644742,12.335359,9.712987,12.30709Q9.781233,12.278822,9.853682,12.264410999999999Q9.9261315,12.25,10,12.25Z" fill-rule="evenodd" fill="#888888" fill-opacity="1"/></g><g><path d="M10,16.25L15,16.25Q15.07387,16.25,15.14632,16.264411Q15.21877,16.278822,15.28701,16.30709Q15.355260000000001,16.335359,15.41668,16.376398000000002Q15.478100000000001,16.417437,15.53033,16.46967Q15.58256,16.521903000000002,15.6236,16.583322Q15.66464,16.644742,15.692910000000001,16.712987Q15.72118,16.781233,15.73559,16.853682Q15.75,16.9261315,15.75,17Q15.75,17.0738685,15.73559,17.146318Q15.72118,17.218767,15.692910000000001,17.287013Q15.66464,17.355258,15.6236,17.416678Q15.58256,17.478096999999998,15.53033,17.53033Q15.478100000000001,17.582563,15.41668,17.623601999999998Q15.355260000000001,17.664641,15.28701,17.69291Q15.21877,17.721178,15.14632,17.735589Q15.07387,17.75,15,17.75L10,17.75Q9.9261315,17.75,9.853682,17.735589Q9.781233,17.721178,9.712987,17.69291Q9.644742,17.664641,9.583322,17.623601999999998Q9.521903,17.582563,9.46967,17.53033Q9.417437,17.478096999999998,9.376398,17.416678Q9.335359,17.355258,9.30709,17.287013Q9.278822,17.218767,9.264410999999999,17.146318Q9.25,17.0738685,9.25,17Q9.25,16.9261315,9.264410999999999,16.853682Q9.278822,16.781233,9.30709,16.712987Q9.335359,16.644742,9.376398,16.583322Q9.417437,16.521903000000002,9.46967,16.46967Q9.521903,16.417437,9.583322,16.376398000000002Q9.644742,16.335359,9.712987,16.30709Q9.781233,16.278822,9.853682,16.264411Q9.9261315,16.25,10,16.25Z" fill-rule="evenodd" fill="#888888" fill-opacity="1"/></g></g></svg>