<?xml version="1.0" encoding="UTF-8"?>
<svg width="32px" height="32px" viewBox="0 0 32 32" version="1.1" xmlns="http://www.w3.org/2000/svg" xmlns:xlink="http://www.w3.org/1999/xlink">
    <!-- Generator: Sketch 61.2 (89653) - https://sketch.com -->
    <title>icon/商品-normal</title>
    <desc>Created with Sketch.</desc>
    <g id="icon/商品-normal" stroke="none" stroke-width="1" fill="none" fill-rule="evenodd">
        <g fill="#888888" fill-rule="nonzero" id="编组-4">
            <g transform="translate(4.000000, 3.000000)">
                <path d="M20,0 C22.209139,0 24,1.790861 24,4 L24,22 C24,24.209139 22.209139,26 20,26 L4,26 C1.790861,26 0,24.209139 0,22 L0,4 C0,1.790861 1.790861,0 4,0 L20,0 Z M20,2 L4,2 C2.9456382,2 2.08183488,2.81587779 2.00548574,3.85073766 L2,4 L2,22 C2,23.0543618 2.81587779,23.9181651 3.85073766,23.9945143 L4,24 L20,24 C21.0543618,24 21.9181651,23.1841222 21.9945143,22.1492623 L22,22 L22,4 C22,2.9456382 21.1841222,2.08183488 20.1492623,2.00548574 L20,2 Z M7,5 C7.51283584,5 7.93550716,5.38604019 7.99327227,5.88337887 L8,6 L8,10 C8,12.209139 9.790861,14 12,14 C14.1421954,14 15.8910789,12.3160315 15.9951047,10.1996403 L16,10 L16,6 C16,5.44771525 16.4477153,5 17,5 C17.5128358,5 17.9355072,5.38604019 17.9932723,5.88337887 L18,6 L18,10 C18,13.3137085 15.3137085,16 12,16 C8.76160306,16 6.12242824,13.4344251 6.00413847,10.2249383 L6,10 L6,6 C6,5.44771525 6.44771525,5 7,5 Z" id="形状"></path>
            </g>
        </g>
    </g>
</svg>