<svg xmlns="http://www.w3.org/2000/svg" xmlns:xlink="http://www.w3.org/1999/xlink" fill="none" version="1.1" width="30" height="30" viewBox="0 0 30 30"><defs><clipPath id="master_svg0_1913_017114"><rect x="0" y="0" width="30" height="30" rx="0"/></clipPath></defs><g clip-path="url(#master_svg0_1913_017114)"><g><path d="M4,11.25L26,11.25Q26.0739,11.25,26.1463,11.264410999999999Q26.2188,11.278822,26.287,11.30709Q26.3553,11.335359,26.4167,11.376398Q26.4781,11.417437,26.5303,11.46967Q26.5826,11.521903,26.6236,11.583322Q26.6646,11.644742,26.6929,11.712987Q26.7212,11.781233,26.7356,11.853682Q26.75,11.9261315,26.75,12Q26.75,12.0738685,26.7356,12.146318Q26.7212,12.218767,26.6929,12.287013Q26.6646,12.355258,26.6236,12.416678Q26.5826,12.478097,26.5303,12.53033Q26.4781,12.582563,26.4167,12.623602Q26.3553,12.664641,26.287,12.69291Q26.2188,12.721178,26.1463,12.735589000000001Q26.0739,12.75,26,12.75L4,12.75Q3.9261315,12.75,3.853682,12.735589000000001Q3.781233,12.721178,3.712987,12.69291Q3.644742,12.664641,3.583322,12.623602Q3.521903,12.582563,3.46967,12.53033Q3.417437,12.478097,3.376398,12.416678Q3.335359,12.355258,3.30709,12.287013Q3.278822,12.218767,3.264411,12.146318Q3.25,12.0738685,3.25,12Q3.25,11.9261315,3.264411,11.853682Q3.278822,11.781233,3.30709,11.712987Q3.335359,11.644742,3.376398,11.583322Q3.417437,11.521903,3.46967,11.46967Q3.521903,11.417437,3.583322,11.376398Q3.644742,11.335359,3.712987,11.30709Q3.781233,11.278822,3.853682,11.264410999999999Q3.9261315,11.25,4,11.25Z" fill-rule="evenodd" fill="#888888" fill-opacity="1"/></g><g><rect x="4" y="7" width="22" height="16" rx="2" fill-opacity="0" stroke-opacity="1" stroke="#888888" fill="none" stroke-width="1.5"/></g><g><path d="M22.25,15Q22.25,14.9261315,22.264409999999998,14.853682Q22.27882,14.781233,22.30709,14.712987Q22.33536,14.644742,22.3764,14.583322Q22.41744,14.521903,22.46967,14.46967Q22.5219,14.417437,22.58332,14.376398Q22.64474,14.335359,22.71299,14.30709Q22.78123,14.278822,22.85368,14.264410999999999Q22.92613,14.25,23,14.25Q23.07387,14.25,23.14632,14.264410999999999Q23.21877,14.278822,23.287010000000002,14.30709Q23.35526,14.335359,23.41668,14.376398Q23.4781,14.417437,23.53033,14.46967Q23.58256,14.521903,23.6236,14.583322Q23.66464,14.644742,23.69291,14.712987Q23.72118,14.781233,23.735590000000002,14.853682Q23.75,14.9261315,23.75,15L23.75,19.49992Q23.75,19.81991,23.55902,20.07256Q23.38517,20.30254,23.11112,20.39753Q22.83707,20.49252,22.55819,20.41946Q22.25181,20.339199999999998,22.05378,20.08785L19.75,17.163809999999998L19.75,20.07692Q19.75,20.15079,19.735589,20.22324Q19.721178,20.29569,19.69291,20.36393Q19.664641,20.43218,19.623601999999998,20.4936Q19.582563,20.55502,19.53033,20.60725Q19.478096999999998,20.659489999999998,19.416678,20.70052Q19.355258,20.74156,19.287013,20.76983Q19.218767,20.798099999999998,19.146318,20.81251Q19.0738685,20.82692,19,20.82692Q18.9261315,20.82692,18.853682,20.81251Q18.781233,20.798099999999998,18.712987,20.76983Q18.644742,20.74156,18.583322,20.70052Q18.521903000000002,20.659489999999998,18.46967,20.60725Q18.417437,20.55502,18.376398000000002,20.4936Q18.335359,20.43218,18.30709,20.36393Q18.278822,20.29569,18.264411,20.22324Q18.25,20.15079,18.25,20.07692L18.25,15.577016Q18.25,15.257027,18.44098,15.00437793Q18.614826,14.774395,18.888878,14.679406Q19.16293,14.584416,19.441815,14.657477Q19.748186,14.737739,19.946218000000002,14.9890877L22.25,17.91313L22.25,15Z" fill-rule="evenodd" fill="#888888" fill-opacity="1"/></g></g></svg>