<?xml version="1.0" standalone="no"?><!DOCTYPE svg PUBLIC "-//W3C//DTD SVG 1.1//EN" "http://www.w3.org/Graphics/SVG/1.1/DTD/svg11.dtd"><svg class="icon" width="200px" height="153.87px" viewBox="0 0 1331 1024" version="1.1" xmlns="http://www.w3.org/2000/svg"><path d="M338.965703 323.743439a89.254037 89.254037 0 1 0-89.254037-89.586763 89.254037 89.254037 0 0 0 89.254037 89.586763z m0-134.089009a44.668609 44.668609 0 1 1-44.668609 44.668609 44.668609 44.668609 0 0 1 44.668609-44.668609z" fill="#707070" /><path d="M316.589807 859.517205a66.961323 66.961323 0 1 0 66.961323-66.961323 66.961323 66.961323 0 0 0-66.961323 66.961323z" fill="#707070" /><path d="M584.435099 859.517205a66.961323 66.961323 0 1 0 66.961323-66.961323 66.961323 66.961323 0 0 0-66.961323 66.961323z" fill="#707070" /><path d="M852.280391 859.517205a66.961323 66.961323 0 1 0 66.961323-66.961323 66.961323 66.961323 0 0 0-66.961323 66.961323z" fill="#707070" /><path d="M684.918674 524.211499L450.595635 390.372035 249.711666 658.050963h870.330835L919.158532 256.366208z" fill="#707070" /><path d="M126.769014 66.046323a44.003155 44.003155 0 0 0-47.579971 39.344977v813.101778a44.003155 44.003155 0 0 0 47.579971 39.344976h1077.287072a44.003155 44.003155 0 0 0 47.579971-39.344976V105.308118a44.003155 44.003155 0 0 0-47.579971-39.344976z m0-65.464051h1077.287072A117.369474 117.369474 0 0 1 1330.908282 105.557663v813.018597a117.369474 117.369474 0 0 1-126.852196 104.97539H126.769014A117.369474 117.369474 0 0 1 0 918.493078V105.308118A117.369474 117.369474 0 0 1 126.769014 0.415909z" fill="#707070" /></svg>