<svg xmlns="http://www.w3.org/2000/svg" xmlns:xlink="http://www.w3.org/1999/xlink" fill="none" version="1.1" width="30" height="30" viewBox="0 0 30 30"><defs><clipPath id="master_svg0_1191_005724"><rect x="0" y="0" width="30" height="30" rx="0"/></clipPath></defs><g clip-path="url(#master_svg0_1191_005724)"><g><path d="M6.25,7.5L6.25,22.5Q6.25,23.432,6.9090097,24.091Q7.568019,24.75,8.5,24.75L21.5,24.75Q22.432000000000002,24.75,23.091,24.091Q23.75,23.432,23.75,22.5L23.75,7.5Q23.75,6.568019,23.091,5.9090099Q22.432000000000002,5.25,21.5,5.25L8.5,5.25Q7.56802,5.25,6.9090098,5.9090099Q6.25,6.56802,6.25,7.5ZM8.5,23.25Q7.75,23.25,7.75,22.5L7.75,7.5Q7.75,6.75,8.5,6.75L21.5,6.75Q22.25,6.75,22.25,7.5L22.25,22.5Q22.25,23.25,21.5,23.25L8.5,23.25Z" fill-rule="evenodd" fill="#888888" fill-opacity="1"/></g><g><path d="M11.25,11Q11.25,10.9261315,11.264410999999999,10.853682Q11.278822,10.781233,11.30709,10.712987Q11.335359,10.644742,11.376398,10.583322Q11.417437,10.521903,11.46967,10.46967Q11.521903,10.417437,11.583322,10.376398Q11.644742,10.335359,11.712987,10.30709Q11.781233,10.278822,11.853682,10.264410999999999Q11.9261315,10.25,12,10.25Q12.0738685,10.25,12.146318,10.264410999999999Q12.218767,10.278822,12.287013,10.30709Q12.355258,10.335359,12.416678,10.376398Q12.478097,10.417437,12.53033,10.46967Q12.582563,10.521903,12.623602,10.583322Q12.664641,10.644742,12.69291,10.712987Q12.721178,10.781233,12.735589000000001,10.853682Q12.75,10.9261315,12.75,11L12.75,14Q12.75,14.93198,13.40901,15.59099Q14.06802,16.25,15,16.25Q15.93198,16.25,16.590989999999998,15.59099Q17.25,14.93198,17.25,14L17.25,11Q17.25,10.9261315,17.264409999999998,10.853682Q17.27882,10.781233,17.30709,10.712987Q17.33536,10.644742,17.3764,10.583322Q17.41744,10.521903,17.46967,10.46967Q17.5219,10.417437,17.58332,10.376398Q17.64474,10.335359,17.712989999999998,10.30709Q17.78123,10.278822,17.85368,10.264410999999999Q17.92613,10.25,18,10.25Q18.07387,10.25,18.14632,10.264410999999999Q18.21877,10.278822,18.287010000000002,10.30709Q18.35526,10.335359,18.41668,10.376398Q18.4781,10.417437,18.53033,10.46967Q18.58256,10.521903,18.6236,10.583322Q18.66464,10.644742,18.69291,10.712987Q18.72118,10.781233,18.735590000000002,10.853682Q18.75,10.9261315,18.75,11L18.75,14Q18.75,15.5533,17.65165,16.65165Q16.5533,17.75,15,17.75Q13.4467,17.75,12.348349,16.65165Q11.25,15.5533,11.25,14L11.25,11Z" fill-rule="evenodd" fill="#888888" fill-opacity="1"/></g></g></svg>