<svg xmlns="http://www.w3.org/2000/svg" xmlns:xlink="http://www.w3.org/1999/xlink" fill="none" version="1.1" width="30" height="30" viewBox="0 0 30 30"><defs><clipPath id="master_svg0_1191_005692"><rect x="0" y="0" width="30" height="30" rx="0"/></clipPath></defs><g clip-path="url(#master_svg0_1191_005692)"><g><path d="" fill="#FFFFFF" fill-opacity="1"/><path d="M22.25,8.5L22.25,14Q22.25,14.07387,22.264400000000002,14.14632Q22.2788,14.21877,22.3071,14.28701Q22.3354,14.355260000000001,22.3764,14.41668Q22.4174,14.478100000000001,22.4697,14.53033Q22.521900000000002,14.58256,22.5833,14.6236Q22.6447,14.66464,22.713,14.692910000000001Q22.7812,14.72118,22.8537,14.73559Q22.926099999999998,14.75,23,14.75Q23.0739,14.75,23.1463,14.73559Q23.2188,14.72118,23.287,14.692910000000001Q23.3553,14.66464,23.4167,14.6236Q23.4781,14.58256,23.5303,14.53033Q23.5826,14.478100000000001,23.6236,14.41668Q23.6646,14.355260000000001,23.6929,14.28701Q23.7212,14.21877,23.7356,14.14632Q23.75,14.07387,23.75,14L23.75,8.5Q23.75,7.56802,23.091,6.9090093Q22.432000000000002,6.25,21.5,6.25L8.5,6.25Q7.568019,6.25,6.9090098,6.9090098Q6.25,7.56802,6.25,8.5L6.25,21.5Q6.25,22.432000000000002,6.9090099,23.091Q7.568019,23.75,8.5,23.75L13,23.75Q13.07387,23.75,13.14632,23.7356Q13.21877,23.7212,13.28701,23.6929Q13.355260000000001,23.6646,13.41668,23.6236Q13.478100000000001,23.5826,13.53033,23.5303Q13.58256,23.4781,13.6236,23.4167Q13.66464,23.3553,13.692910000000001,23.287Q13.72118,23.2188,13.73559,23.1463Q13.75,23.0739,13.75,23Q13.75,22.926099999999998,13.73559,22.8537Q13.72118,22.7812,13.692910000000001,22.713Q13.66464,22.6447,13.6236,22.5833Q13.58256,22.521900000000002,13.53033,22.4697Q13.478100000000001,22.4174,13.41668,22.3764Q13.355260000000001,22.3354,13.28701,22.3071Q13.21877,22.2788,13.14632,22.264400000000002Q13.07387,22.25,13,22.25L8.5,22.25Q7.75,22.25,7.75,21.5L7.75,8.5Q7.75,7.75,8.5,7.75L21.5,7.75Q22.25,7.75,22.25,8.5Z" fill-rule="evenodd" fill="#888888" fill-opacity="1"/></g><g><path d="M22.398699999999998,14.60023L22.3992,14.60061Q22.496499999999997,14.67335,22.6117,14.71167Q22.7269,14.75,22.848399999999998,14.75Q22.9223,14.75,22.9947,14.73559Q23.0672,14.72118,23.1354,14.692910000000001Q23.2036,14.66464,23.2651,14.6236Q23.3265,14.58256,23.3787,14.53033Q23.431,14.478100000000001,23.472,14.41668Q23.513,14.355260000000001,23.5413,14.28701Q23.5696,14.21877,23.584,14.14632Q23.5984,14.07387,23.5984,14Q23.5984,13.91255,23.5783,13.82744Q23.5581,13.742329999999999,23.519,13.66414Q23.4798,13.58594,23.4237,13.51886Q23.3676,13.45177,23.2976,13.39939L18.2514,9.625445Q17.916,9.374601,17.4972,9.376471Q17.078400000000002,9.378341,16.745240000000003,9.63217L6.545468,17.40343Q6.476579,17.45591,6.4214649999999995,17.52272Q6.366352,17.58952,6.327914,17.66713Q6.289477,17.74474,6.269738,17.82907Q6.25,17.91339,6.25,18Q6.25,18.07387,6.264411,18.14632Q6.278822,18.21877,6.30709,18.287010000000002Q6.335359,18.35526,6.376398,18.41668Q6.417437,18.478099999999998,6.46967,18.53033Q6.521903,18.58256,6.583322,18.6236Q6.644742,18.66464,6.712987,18.692909999999998Q6.781233,18.72118,6.853682,18.735590000000002Q6.9261315,18.75,7,18.75Q7.123167,18.75,7.239864,18.710610000000003Q7.356562,18.671219999999998,7.454532,18.59657L17.5042,10.939688L22.398699999999998,14.60023Z" fill-rule="evenodd" fill="#888888" fill-opacity="1"/></g><g><path d="M23.75,20.29627Q23.75,18.39636,22.54223,17.77701L22.54999,17.7485Q22.549979999999998,17.43962,22.86667,16.82494L23.68401,15.238495L21.97877,15.764802Q20.91951,16.09173,20.12949,16.94536Q20.12762,16.93842,20.125790000000002,16.93141Q19.96421,16.31059,20.14183,15.10974L20.39537,13.3956L18.97211,14.383972Q17.51896,15.3931,17.16442,18.25537Q17.02743,17.8962,16.88665,17.45117L16.52992,16.32344L15.662018,17.12704Q14.99817907,17.74171,14.632147,18.543Q14.25,19.379559999999998,14.25,20.29627Q14.25,22.158070000000002,15.662018,23.465490000000003Q17.04924,24.74995,19,24.74995Q20.95076,24.74995,22.33798,23.465490000000003Q23.75,22.158070000000002,23.75,20.29627ZM21.08698,18.13018Q21.22286,18.78616,21.857770000000002,19.11175Q22.25,19.31288,22.25,20.29627Q22.25,21.5027,21.31887,22.36485Q20.362949999999998,23.24995,19,23.24995Q17.63705,23.24995,16.68113,22.36485Q15.75,21.5027,15.75,20.29627Q15.75,19.74981,15.961254,19.24674Q16.77891,21.04626,17.8,21.04626L18.55002,21.04626L18.55,20.29624Q18.54996,18.70694,18.7743,17.62779Q19.11507,18.524070000000002,19.97882,18.79065L20.51832,18.95717L20.82753,18.48474Q20.95198,18.29461,21.08698,18.13018Z" fill-rule="evenodd" fill="#888888" fill-opacity="1"/></g></g></svg>