<?xml version="1.0" encoding="UTF-8"?>
<svg width="16px" height="16px" viewBox="0 0 16 16" version="1.1" xmlns="http://www.w3.org/2000/svg" xmlns:xlink="http://www.w3.org/1999/xlink">
    <!-- Generator: Sketch 61 (89581) - https://sketch.com -->
    <title>删除按钮</title>
    <desc>Created with Sketch.</desc>
    <g id="删除按钮" stroke="none" stroke-width="1" fill="none" fill-rule="evenodd">
        <g id="编组-4" transform="translate(1.000000, 1.000000)">
            <circle id="形状结合" fill="#888888" cx="7" cy="7" r="7"></circle>
            <path d="M4.17157288,4.17157288 C4.56209717,3.78104858 5.19526215,3.78104858 5.58578644,4.17157288 L6.99929289,5.58649354 L8.41421356,4.17157288 C8.80473785,3.78104858 9.43790283,3.78104858 9.82842712,4.17157288 C10.2189514,4.56209717 10.2189514,5.19526215 9.82842712,5.58578644 L8.41350646,7.00070711 L9.82842712,8.41421356 C10.2189514,8.80473785 10.2189514,9.43790283 9.82842712,9.82842712 C9.43790283,10.2189514 8.80473785,10.2189514 8.41421356,9.82842712 L6.99929289,8.41492067 L5.58578644,9.82842712 C5.19526215,10.2189514 4.56209717,10.2189514 4.17157288,9.82842712 C3.78104858,9.43790283 3.78104858,8.80473785 4.17157288,8.41421356 L5.58507933,7.00070711 L4.17157288,5.58578644 C3.78104858,5.19526215 3.78104858,4.56209717 4.17157288,4.17157288 Z" id="路径" fill="#FFFFFF"></path>
        </g>
    </g>
</svg>