<svg xmlns="http://www.w3.org/2000/svg" xmlns:xlink="http://www.w3.org/1999/xlink" fill="none" version="1.1" width="30" height="30" viewBox="0 0 30 30"><defs><clipPath id="master_svg0_1191_005658"><rect x="0" y="0" width="30" height="30" rx="0"/></clipPath></defs><g clip-path="url(#master_svg0_1191_005658)"><g><path d="M3.25,9.5L3.25,20.5Q3.25,21.432000000000002,3.9090098,22.091Q4.568019,22.75,5.5,22.75L24.5,22.75Q25.432,22.75,26.091,22.091Q26.75,21.432000000000002,26.75,20.5L26.75,9.5Q26.75,8.56802,26.091,7.9090095Q25.432,7.25,24.5,7.25L5.5,7.25Q4.56802,7.25,3.9090098,7.9090097Q3.25,8.56802,3.25,9.5ZM4.96967,21.0303Q4.75,20.8107,4.75,20.5L4.75,9.5Q4.75,9.18934,4.96967,8.96967Q5.18934,8.75,5.5,8.75L24.5,8.75Q25.25,8.75,25.25,9.5L25.25,20.5Q25.25,21.25,24.5,21.25L5.5,21.25Q5.18934,21.25,4.96967,21.0303Z" fill-rule="evenodd" fill="#888888" fill-opacity="1"/></g><g><path d="M8,17.25L10,17.25Q10.07387,17.25,10.14632,17.264411Q10.21877,17.278822,10.28701,17.30709Q10.35526,17.335359,10.41668,17.376398000000002Q10.4781,17.417437,10.53033,17.46967Q10.58256,17.521903000000002,10.6236,17.583322Q10.66464,17.644742,10.69291,17.712987Q10.72118,17.781233,10.73559,17.853682Q10.75,17.9261315,10.75,18Q10.75,18.0738685,10.73559,18.146318Q10.72118,18.218767,10.69291,18.287013Q10.66464,18.355258,10.6236,18.416678Q10.58256,18.478096999999998,10.53033,18.53033Q10.4781,18.582563,10.41668,18.623601999999998Q10.35526,18.664641,10.28701,18.69291Q10.21877,18.721178,10.14632,18.735589Q10.07387,18.75,10,18.75L8,18.75Q7.9261315,18.75,7.853682,18.735589Q7.781233,18.721178,7.712987,18.69291Q7.644742,18.664641,7.583322,18.623601999999998Q7.521903,18.582563,7.46967,18.53033Q7.417437,18.478096999999998,7.376398,18.416678Q7.335359,18.355258,7.30709,18.287013Q7.278822,18.218767,7.264411,18.146318Q7.25,18.0738685,7.25,18Q7.25,17.9261315,7.264411,17.853682Q7.278822,17.781233,7.30709,17.712987Q7.335359,17.644742,7.376398,17.583322Q7.417437,17.521903000000002,7.46967,17.46967Q7.521903,17.417437,7.583322,17.376398000000002Q7.644742,17.335359,7.712987,17.30709Q7.781233,17.278822,7.853682,17.264411Q7.9261315,17.25,8,17.25Z" fill-rule="evenodd" fill="#888888" fill-opacity="1"/></g><g><path d="M14,17.25L16,17.25Q16.07387,17.25,16.14632,17.264411Q16.21877,17.278822,16.28701,17.30709Q16.35526,17.335359,16.41668,17.376398000000002Q16.4781,17.417437,16.53033,17.46967Q16.58256,17.521903000000002,16.6236,17.583322Q16.66464,17.644742,16.69291,17.712987Q16.72118,17.781233,16.735590000000002,17.853682Q16.75,17.9261315,16.75,18Q16.75,18.0738685,16.735590000000002,18.146318Q16.72118,18.218767,16.69291,18.287013Q16.66464,18.355258,16.6236,18.416678Q16.58256,18.478096999999998,16.53033,18.53033Q16.4781,18.582563,16.41668,18.623601999999998Q16.35526,18.664641,16.28701,18.69291Q16.21877,18.721178,16.14632,18.735589Q16.07387,18.75,16,18.75L14,18.75Q13.9261315,18.75,13.853682,18.735589Q13.781233,18.721178,13.712987,18.69291Q13.644742,18.664641,13.583322,18.623601999999998Q13.521903,18.582563,13.46967,18.53033Q13.417437,18.478096999999998,13.376398,18.416678Q13.335359,18.355258,13.30709,18.287013Q13.278822,18.218767,13.264410999999999,18.146318Q13.25,18.0738685,13.25,18Q13.25,17.9261315,13.264410999999999,17.853682Q13.278822,17.781233,13.30709,17.712987Q13.335359,17.644742,13.376398,17.583322Q13.417437,17.521903000000002,13.46967,17.46967Q13.521903,17.417437,13.583322,17.376398000000002Q13.644742,17.335359,13.712987,17.30709Q13.781233,17.278822,13.853682,17.264411Q13.9261315,17.25,14,17.25Z" fill-rule="evenodd" fill="#888888" fill-opacity="1"/></g><g><path d="M20,17.25L22,17.25Q22.07387,17.25,22.14632,17.264411Q22.21877,17.278822,22.28701,17.30709Q22.35526,17.335359,22.41668,17.376398000000002Q22.4781,17.417437,22.53033,17.46967Q22.58256,17.521903000000002,22.6236,17.583322Q22.66464,17.644742,22.69291,17.712987Q22.72118,17.781233,22.735590000000002,17.853682Q22.75,17.9261315,22.75,18Q22.75,18.0738685,22.735590000000002,18.146318Q22.72118,18.218767,22.69291,18.287013Q22.66464,18.355258,22.6236,18.416678Q22.58256,18.478096999999998,22.53033,18.53033Q22.4781,18.582563,22.41668,18.623601999999998Q22.35526,18.664641,22.28701,18.69291Q22.21877,18.721178,22.14632,18.735589Q22.07387,18.75,22,18.75L20,18.75Q19.9261315,18.75,19.853682,18.735589Q19.781233,18.721178,19.712987,18.69291Q19.644742,18.664641,19.583322,18.623601999999998Q19.521903000000002,18.582563,19.46967,18.53033Q19.417437,18.478096999999998,19.376398000000002,18.416678Q19.335359,18.355258,19.30709,18.287013Q19.278822,18.218767,19.264411,18.146318Q19.25,18.0738685,19.25,18Q19.25,17.9261315,19.264411,17.853682Q19.278822,17.781233,19.30709,17.712987Q19.335359,17.644742,19.376398000000002,17.583322Q19.417437,17.521903000000002,19.46967,17.46967Q19.521903000000002,17.417437,19.583322,17.376398000000002Q19.644742,17.335359,19.712987,17.30709Q19.781233,17.278822,19.853682,17.264411Q19.9261315,17.25,20,17.25Z" fill-rule="evenodd" fill="#888888" fill-opacity="1"/></g><g><rect x="7" y="11" width="4" height="4" rx="1" fill-opacity="0" stroke-opacity="1" stroke="#888888" fill="none" stroke-width="1"/></g><g><rect x="13" y="11" width="4" height="4" rx="1" fill-opacity="0" stroke-opacity="1" stroke="#888888" fill="none" stroke-width="1"/></g><g><rect x="19" y="11" width="4" height="4" rx="1" fill-opacity="0" stroke-opacity="1" stroke="#888888" fill="none" stroke-width="1"/></g></g></svg>