<svg xmlns="http://www.w3.org/2000/svg" xmlns:xlink="http://www.w3.org/1999/xlink" fill="none" version="1.1" width="30" height="30" viewBox="0 0 30 30"><defs><clipPath id="master_svg0_1191_005641"><rect x="0" y="0" width="30" height="30" rx="0"/></clipPath></defs><g clip-path="url(#master_svg0_1191_005641)"><g><path d="" fill="#FFFFFF" fill-opacity="1"/><path d="M5.5,21.75L7,21.75L7,20.25L5.5,20.25Q4.75,20.25,4.75,19.5L4.75,10.5Q4.75,9.75,5.5,9.75L7,9.75L7,8.25L5.5,8.25Q4.56802,8.25,3.9090099,8.9090097Q3.25,9.56802,3.25,10.5L3.25,19.5Q3.25,20.432000000000002,3.90901,21.091Q4.56802,21.75,5.5,21.75ZM24.5,20.25L22.5,20.25L22.5,21.75L24.5,21.75Q25.432,21.75,26.091,21.091Q26.75,20.432000000000002,26.75,19.5L26.75,10.5Q26.75,9.568018,26.091,8.9090097Q25.432,8.25,24.5,8.25L22.5,8.25L22.5,9.75L24.5,9.75Q25.25,9.75,25.25,10.5L25.25,19.5Q25.25,20.25,24.5,20.25Z" fill-rule="evenodd" fill="#888888" fill-opacity="1"/></g><g><path d="M6.25,8.5L6.25,21.5Q6.25,22.432000000000002,6.9090092,23.091Q7.56802,23.75,8.5,23.75L21.5,23.75Q22.432000000000002,23.75,23.091,23.091Q23.75,22.432000000000002,23.75,21.5L23.75,8.5Q23.75,7.568019,23.091,6.9090099Q22.432000000000002,6.25,21.5,6.25L8.5,6.25Q7.56802,6.25,6.9090098,6.9090098Q6.25,7.568019,6.25,8.5ZM8.5,22.25Q7.75,22.25,7.75,21.5L7.75,8.5Q7.75,7.75,8.5,7.75L21.5,7.75Q22.25,7.75,22.25,8.5L22.25,21.5Q22.25,22.25,21.5,22.25L8.5,22.25Z" fill-rule="evenodd" fill="#888888" fill-opacity="1"/></g><g><path d="M22.529600000000002,18.58417L22.5303,18.58467Q22.6301,18.66493,22.750999999999998,18.70746Q22.8719,18.75,23,18.75Q23.0739,18.75,23.1463,18.735590000000002Q23.2188,18.72118,23.287,18.69291Q23.3553,18.66464,23.4167,18.6236Q23.4781,18.58256,23.5303,18.53033Q23.5826,18.4781,23.6236,18.41668Q23.6646,18.35526,23.6929,18.287010000000002Q23.7212,18.21877,23.7356,18.14632Q23.75,18.07387,23.75,18Q23.75,17.91584,23.7313,17.83377Q23.7127,17.7517,23.6763,17.67581Q23.6399,17.59992,23.5876,17.53398Q23.5353,17.468040000000002,23.4697,17.41532L23.469,17.4147L20.9157,15.3634Q20.592100000000002,15.103390000000001,20.177300000000002,15.08865Q19.7624,15.0739,19.4211,15.31026L16.92512,17.03901L12.3905,12.799852Q12.007380000000001,12.441702,11.48341,12.464127Q10.95944,12.486553,10.60833,12.876126L6.442881,17.497889999999998Q6.349758,17.601210000000002,6.299879,17.73106Q6.25,17.8609,6.25,18Q6.25,18.07387,6.264411,18.14632Q6.278822,18.21877,6.30709,18.287010000000002Q6.335359,18.35526,6.376398,18.41668Q6.417437,18.4781,6.46967,18.53033Q6.521903,18.58256,6.583322,18.6236Q6.644742,18.66464,6.712987,18.69291Q6.781233,18.72118,6.853682,18.735590000000002Q6.9261315,18.75,7,18.75Q7.159324,18.75,7.304889,18.68523Q7.450454,18.62046,7.557119,18.502110000000002L7.557567,18.50162L11.55212,14.06948L16.04807,18.27247Q16.37043,18.57383,16.81054,18.60601Q17.2506,18.63819,17.6134,18.38693L20.1218,16.64964L22.529600000000002,18.58417Z" fill-rule="evenodd" fill="#888888" fill-opacity="1"/></g><g><ellipse cx="17.5" cy="12.5" rx="1.5" ry="1.5" fill="#888888" fill-opacity="1"/></g></g></svg>