<?xml version="1.0" encoding="UTF-8"?>
<svg width="32px" height="32px" viewBox="0 0 32 32" version="1.1" xmlns="http://www.w3.org/2000/svg" xmlns:xlink="http://www.w3.org/1999/xlink">
    <!-- Generator: Sketch 61.2 (89653) - https://sketch.com -->
    <title>icon/直播-normal</title>
    <desc>Created with Sketch.</desc>
    <g id="icon/直播-normal" stroke="none" stroke-width="1" fill="none" fill-rule="evenodd">
        <g fill="#888888" fill-rule="nonzero" id="编组-4">
            <g transform="translate(0.000000, 5.000000)">
                <path d="M22,0 C24.209139,0 26,1.790861 26,4 L29.1055728,2.4472136 C30.0935298,1.9532351 31.2948759,2.35368379 31.7888544,3.34164079 C31.9277098,3.61935166 32,3.92557779 32,4.23606798 L32,17.763932 C32,18.8685015 31.1045695,19.763932 30,19.763932 C29.6895098,19.763932 29.3832837,19.6916418 29.1055728,19.5527864 L26,18 C26,20.209139 24.209139,22 22,22 L4,22 C1.790861,22 0,20.209139 0,18 L0,4 C0,1.790861 1.790861,0 4,0 L22,0 Z M22,2 L4,2 C2.9456382,2 2.08183488,2.81587779 2.00548574,3.85073766 L2,4 L2,18 C2,19.0543618 2.81587779,19.9181651 3.85073766,19.9945143 L4,20 L22,20 C23.0543618,20 23.9181651,19.1841222 23.9945143,18.1492623 L24,18 L24,16.381966 C24,15.8296813 24.4477153,15.381966 25,15.381966 C25.1552451,15.381966 25.3083582,15.4181111 25.4472136,15.4875388 L30,17.763932 L30,4.23606798 L25.4472136,6.51246118 C24.9532351,6.75945043 24.3525621,6.55922608 24.1055728,6.06524758 C24.0361451,5.92639215 24,5.77327908 24,5.61803399 L24,4 C24,2.9456382 23.1841222,2.08183488 22.1492623,2.00548574 L22,2 Z M10.478125,7.87578125 C10.733643,7.87578125 10.9549148,7.96653327 11.1213517,8.14500175 C11.2601343,8.29381681 11.3361617,8.49133133 11.3576491,8.73047854 L11.3640625,8.87890625 L11.363717,13.4050181 L11.3560456,13.5559096 C11.3326276,13.7867036 11.2569074,13.9795014 11.1224881,14.1252572 C10.9560978,14.3056804 10.7343339,14.3976563 10.478125,14.3976563 C10.2280127,14.3976563 10.0099163,14.3035958 9.84436454,14.1220871 C9.70724281,13.9717489 9.63167237,13.7745689 9.61029116,13.5375564 L9.60390625,13.390625 L9.60425058,8.8645368 L9.61183805,8.71509657 C9.63498296,8.48647 9.70974472,8.29500695 9.8423036,8.1495155 C10.0070175,7.96873192 10.225968,7.87578125 10.478125,7.87578125 Z M16.846875,7.87578125 C16.9989165,7.87578125 17.1429863,7.91460856 17.2736746,7.99101096 C17.4022981,8.06620623 17.5057784,8.16867199 17.5801701,8.29533907 C17.6545227,8.42193944 17.69375,8.55658439 17.69375,8.6953125 C17.69375,8.77683775 17.6830507,8.86154091 17.6623377,8.94957118 C17.643944,9.02774408 17.620933,9.10444759 17.5933197,9.17961711 L17.5227132,9.37767962 L16.1374627,13.1158157 L16.0615091,13.3300562 L15.9863265,13.5313322 C15.929198,13.6801671 15.8619346,13.8131651 15.7839901,13.9300819 C15.6929201,14.0666869 15.5721133,14.1784105 15.4247969,14.2636055 C15.268118,14.354215 15.0843977,14.3976563 14.878125,14.3976563 C14.6727741,14.3976563 14.4899602,14.3553299 14.3338162,14.266911 C14.1849471,14.1826116 14.0625415,14.0693408 13.9698082,13.9293316 C13.8911023,13.8105012 13.8234123,13.6774027 13.7663854,13.5303334 L13.6904136,13.3284547 L13.6160573,13.1190756 L12.1816743,9.21203408 C12.1517245,9.13321876 12.1268429,9.04924355 12.1068725,8.96014469 C12.0854786,8.8646948 12.0742187,8.77981314 12.0742187,8.703125 C12.0742187,8.4887217 12.1602123,8.2936632 12.3197027,8.13028273 C12.4838233,7.96215926 12.6956551,7.87578125 12.9367187,7.87578125 C13.226806,7.87578125 13.4614904,7.97729589 13.6050162,8.18916743 C13.68583,8.308464 13.7622166,8.47097802 13.8369946,8.67793491 L14.904,11.838 L15.9609512,8.69872376 L16.0826168,8.36869859 C16.1363316,8.24267544 16.2224752,8.13249176 16.3368021,8.03912474 C16.4733183,7.92763656 16.6468748,7.87578125 16.846875,7.87578125 Z M5.17578125,7.87578125 C5.43129924,7.87578125 5.65257102,7.96653327 5.81900791,8.14500175 C5.9577905,8.29381681 6.03381797,8.49133133 6.05530539,8.73047854 L6.06171875,8.87890625 L6.061,12.746 L8.12855639,12.7472641 L8.25252294,12.7540527 C8.44840024,12.7750503 8.61618484,12.84294 8.74672371,12.9616117 C8.90985835,13.1099159 8.9953125,13.3052397 8.9953125,13.5273438 C8.9953125,13.7525658 8.91004142,13.9489137 8.74526354,14.0941784 C8.61721896,14.2070598 8.45436527,14.2710568 8.262515,14.2921403 L8.11328125,14.3 L5.30088186,14.2997749 L5.16773742,14.2943424 C4.91108967,14.2734213 4.70286639,14.1933252 4.5542092,14.0429191 C4.4045841,13.8915337 4.32584119,13.6822805 4.30639679,13.4228963 L4.3015625,13.2890625 L4.3018985,8.86471164 L4.30937947,8.71546138 C4.33219103,8.48734581 4.40587035,8.29632534 4.53677738,8.15087308 C4.70059867,7.96884942 4.92086001,7.87578125 5.17578125,7.87578125 Z M22.4522971,7.97376509 L22.5730419,7.97981591 C22.7657052,7.99887052 22.9284434,8.06151313 23.0526714,8.17493873 C23.2063881,8.31528875 23.2851562,8.5036473 23.2851562,8.71875 C23.2851562,8.93604087 23.206763,9.12577521 23.0526714,9.26646752 C22.9255658,9.38252048 22.7596268,9.44508325 22.5611914,9.46271381 L22.4382812,9.46796875 L20.125,9.467 L20.125,10.274 L22.2454093,10.2745531 L22.3619121,10.2804684 C22.549044,10.2991509 22.7078566,10.3605943 22.829701,10.4715272 C22.9812197,10.6094771 23.0585937,10.7954058 23.0585937,11.0078125 C23.0585937,11.217984 22.9836764,11.4030072 22.8368302,11.5431785 C22.7125184,11.6618398 22.548679,11.7258158 22.3526624,11.743845 L22.23125,11.7492188 L20.125,11.749 L20.125,12.778 L22.5427582,12.7784821 L22.66285,12.7847823 C22.8543935,12.8045134 23.0173971,12.8689874 23.1428106,12.9838026 C23.2994756,13.1272283 23.3789062,13.3207706 23.3789062,13.5429688 C23.3789062,13.7607667 23.2987501,13.9515609 23.1428106,14.0943224 C23.0142028,14.212062 22.8476153,14.2764006 22.6502094,14.2945763 L22.528125,14.3 L19.3641631,14.2997749 L19.2310187,14.2943424 C18.9743709,14.2734213 18.7661476,14.1933252 18.6174905,14.0429191 C18.4678653,13.8915337 18.3891224,13.6822805 18.369678,13.4228963 L18.3648437,13.2890625 L18.3650704,8.97271544 L18.3704792,8.84067763 C18.3825059,8.69350791 18.4140019,8.56271691 18.4674651,8.44875581 C18.5471032,8.27900083 18.6766107,8.15058166 18.8468361,8.0728244 C18.958273,8.0219211 19.0853113,7.99146762 19.2279468,7.97942233 L19.3757812,7.9734375 L22.4522971,7.97376509 Z" id="形状结合"></path>
            </g>
        </g>
    </g>
</svg>