<?xml version="1.0" encoding="UTF-8"?>
<svg width="32px" height="32px" viewBox="0 0 32 32" version="1.1" xmlns="http://www.w3.org/2000/svg" xmlns:xlink="http://www.w3.org/1999/xlink">
    <!-- Generator: Sketch 61.2 (89653) - https://sketch.com -->
    <title>icon/页面定位器-normal</title>
    <desc>Created with Sketch.</desc>
    <g id="icon/页面定位器-normal" stroke="none" stroke-width="1" fill="none" fill-rule="evenodd">
        <path d="M4,19 C4.51283584,19 4.93550716,19.3860402 4.99327227,19.8833789 L5,20 L5,26 C5,26.5522847 5.44771525,27 6,27 L12,27 C12.5522847,27 13,27.4477153 13,28 C13,28.5522847 12.5522847,29 12,29 L6,29 C4.34314575,29 3,27.6568542 3,26 L3,20 C3,19.4477153 3.44771525,19 4,19 Z M28,19 C28.5128358,19 28.9355072,19.3860402 28.9932723,19.8833789 L29,20 L29,26 C29,27.6568542 27.6568542,29 26,29 L20,29 C19.4477153,29 19,28.5522847 19,28 C19,27.4477153 19.4477153,27 20,27 L26,27 C26.5522847,27 27,26.5522847 27,26 L27,20 C27,19.4477153 27.4477153,19 28,19 Z M12,3 C12.5522847,3 13,3.44771525 13,4 C13,4.51283584 12.6139598,4.93550716 12.1166211,4.99327227 L12,5 L6,5 C5.44771525,5 5,5.44771525 5,6 L5,12 C5,12.5522847 4.55228475,13 4,13 C3.44771525,13 3,12.5522847 3,12 L3,6 C3,4.34314575 4.34314575,3 6,3 L12,3 Z M26,3 C27.6568542,3 29,4.34314575 29,6 L29,12 C29,12.5522847 28.5522847,13 28,13 C27.4477153,13 27,12.5522847 27,12 L27,6 C27,5.44771525 26.5522847,5 26,5 L20,5 C19.4477153,5 19,4.55228475 19,4 C19,3.44771525 19.4477153,3 20,3 L26,3 Z" id="形状结合" fill="#888888" fill-rule="nonzero"></path>
        <path d="M16,11 C13.2385763,11 11,13.2385763 11,16 C11,18.7614237 13.2385763,21 16,21 C18.7614237,21 21,18.7614237 21,16 C21,13.2385763 18.7614237,11 16,11 Z" id="路径" stroke="#888888" stroke-width="2" fill-rule="nonzero"></path>
    </g>
</svg>