<?xml version="1.0" standalone="no"?><!DOCTYPE svg PUBLIC "-//W3C//DTD SVG 1.1//EN" "http://www.w3.org/Graphics/SVG/1.1/DTD/svg11.dtd"><svg class="icon" width="200px" height="200.00px" viewBox="0 0 1024 1024" version="1.1" xmlns="http://www.w3.org/2000/svg"><path d="M787.692308 157.538462a78.769231 78.769231 0 0 1 78.76923 78.76923v586.83077a78.769231 78.769231 0 0 1-127.251692 62.109538l-177.467077-138.633846a78.769231 78.769231 0 0 0-96.728615-0.157539l-180.460308 139.776A78.769231 78.769231 0 0 1 157.538462 823.965538V236.307692a78.769231 78.769231 0 0 1 78.76923-78.76923h551.384616z m0 31.507692H236.307692a47.261538 47.261538 0 0 0-47.02523 42.417231L189.046154 236.307692v587.618462a47.261538 47.261538 0 0 0 71.955692 40.329846l4.253539-2.914462 180.460307-139.815384a110.276923 110.276923 0 0 1 128.984616-4.371692l6.419692 4.647384 177.467077 138.633846a47.261538 47.261538 0 0 0 76.130461-32.452923l0.236308-4.844307V236.307692a47.261538 47.261538 0 0 0-42.417231-47.02523L787.692308 189.046154z m-98.461539 248.123077a15.753846 15.753846 0 0 1 3.150769 31.192615l-3.150769 0.315077h-354.461538a15.753846 15.753846 0 0 1-3.150769-31.192615l3.150769-0.315077h354.461538z m0-118.153846a15.753846 15.753846 0 0 1 3.150769 31.192615l-3.150769 0.315077h-354.461538a15.753846 15.753846 0 0 1-3.150769-31.192615L334.769231 319.015385h354.461538z" fill="#707070" /></svg>