<svg xmlns="http://www.w3.org/2000/svg" xmlns:xlink="http://www.w3.org/1999/xlink" fill="none" version="1.1" width="30" height="30" viewBox="0 0 30 30"><defs><clipPath id="master_svg0_1191_005646"><rect x="0" y="0" width="30" height="30" rx="0"/></clipPath></defs><g clip-path="url(#master_svg0_1191_005646)"><g><ellipse cx="7" cy="9" rx="1" ry="1" fill="#888888" fill-opacity="1"/></g><g><ellipse cx="7" cy="13" rx="1" ry="1" fill="#888888" fill-opacity="1"/></g><g><ellipse cx="7" cy="17" rx="1" ry="1" fill="#888888" fill-opacity="1"/></g><g><ellipse cx="7" cy="21" rx="1" ry="1" fill="#888888" fill-opacity="1"/></g><g><path d="M11,12.25L23,12.25Q23.073900000000002,12.25,23.1463,12.264410999999999Q23.2188,12.278822,23.287,12.30709Q23.3553,12.335359,23.4167,12.376398Q23.478099999999998,12.417437,23.5303,12.46967Q23.5826,12.521903,23.6236,12.583322Q23.6646,12.644742,23.6929,12.712987Q23.7212,12.781233,23.735599999999998,12.853682Q23.75,12.9261315,23.75,13Q23.75,13.0738685,23.735599999999998,13.146318Q23.7212,13.218767,23.6929,13.287013Q23.6646,13.355258,23.6236,13.416678Q23.5826,13.478097,23.5303,13.53033Q23.478099999999998,13.582563,23.4167,13.623602Q23.3553,13.664641,23.287,13.69291Q23.2188,13.721178,23.1463,13.735589000000001Q23.073900000000002,13.75,23,13.75L11,13.75Q10.9261315,13.75,10.853682,13.735589000000001Q10.781233,13.721178,10.712987,13.69291Q10.644742,13.664641,10.583322,13.623602Q10.521903,13.582563,10.46967,13.53033Q10.417437,13.478097,10.376398,13.416678Q10.335359,13.355258,10.30709,13.287013Q10.278822,13.218767,10.264410999999999,13.146318Q10.25,13.0738685,10.25,13Q10.25,12.9261315,10.264410999999999,12.853682Q10.278822,12.781233,10.30709,12.712987Q10.335359,12.644742,10.376398,12.583322Q10.417437,12.521903,10.46967,12.46967Q10.521903,12.417437,10.583322,12.376398Q10.644742,12.335359,10.712987,12.30709Q10.781233,12.278822,10.853682,12.264410999999999Q10.9261315,12.25,11,12.25Z" fill-rule="evenodd" fill="#888888" fill-opacity="1"/></g><g><path d="M11,8.25L24,8.25Q24.073900000000002,8.25,24.1463,8.264410999999999Q24.2188,8.278822,24.287,8.30709Q24.3553,8.335359,24.4167,8.376398Q24.478099999999998,8.417437,24.5303,8.46967Q24.5826,8.521903,24.6236,8.583322Q24.6646,8.644742,24.6929,8.712987Q24.7212,8.781233,24.735599999999998,8.853682Q24.75,8.9261315,24.75,9Q24.75,9.0738685,24.735599999999998,9.146318Q24.7212,9.218767,24.6929,9.287013Q24.6646,9.355258,24.6236,9.416678Q24.5826,9.478097,24.5303,9.53033Q24.478099999999998,9.582563,24.4167,9.623602Q24.3553,9.664641,24.287,9.69291Q24.2188,9.721178,24.1463,9.735589000000001Q24.073900000000002,9.75,24,9.75L11,9.75Q10.9261315,9.75,10.853682,9.735589000000001Q10.781233,9.721178,10.712987,9.69291Q10.644742,9.664641,10.583322,9.623602Q10.521903,9.582563,10.46967,9.53033Q10.417437,9.478097,10.376398,9.416678Q10.335359,9.355258,10.30709,9.287013Q10.278822,9.218767,10.264410999999999,9.146318Q10.25,9.0738685,10.25,9Q10.25,8.9261315,10.264410999999999,8.853682Q10.278822,8.781233,10.30709,8.712987Q10.335359,8.644742,10.376398,8.583322Q10.417437,8.521903,10.46967,8.46967Q10.521903,8.417437,10.583322,8.376398Q10.644742,8.335359,10.712987,8.30709Q10.781233,8.278822,10.853682,8.264410999999999Q10.9261315,8.25,11,8.25Z" fill-rule="evenodd" fill="#888888" fill-opacity="1"/></g><g><path d="M11,16.25L22,16.25Q22.073900000000002,16.25,22.1463,16.264411Q22.2188,16.278822,22.287,16.30709Q22.3553,16.335359,22.4167,16.376398000000002Q22.478099999999998,16.417437,22.5303,16.46967Q22.5826,16.521903000000002,22.6236,16.583322Q22.6646,16.644742,22.6929,16.712987Q22.7212,16.781233,22.735599999999998,16.853682Q22.75,16.9261315,22.75,17Q22.75,17.0738685,22.735599999999998,17.146318Q22.7212,17.218767,22.6929,17.287013Q22.6646,17.355258,22.6236,17.416678Q22.5826,17.478096999999998,22.5303,17.53033Q22.478099999999998,17.582563,22.4167,17.623601999999998Q22.3553,17.664641,22.287,17.69291Q22.2188,17.721178,22.1463,17.735589Q22.073900000000002,17.75,22,17.75L11,17.75Q10.9261315,17.75,10.853682,17.735589Q10.781233,17.721178,10.712987,17.69291Q10.644742,17.664641,10.583322,17.623601999999998Q10.521903,17.582563,10.46967,17.53033Q10.417437,17.478096999999998,10.376398,17.416678Q10.335359,17.355258,10.30709,17.287013Q10.278822,17.218767,10.264410999999999,17.146318Q10.25,17.0738685,10.25,17Q10.25,16.9261315,10.264410999999999,16.853682Q10.278822,16.781233,10.30709,16.712987Q10.335359,16.644742,10.376398,16.583322Q10.417437,16.521903000000002,10.46967,16.46967Q10.521903,16.417437,10.583322,16.376398000000002Q10.644742,16.335359,10.712987,16.30709Q10.781233,16.278822,10.853682,16.264411Q10.9261315,16.25,11,16.25Z" fill-rule="evenodd" fill="#888888" fill-opacity="1"/></g><g><path d="M11,20.25L21,20.25Q21.073900000000002,20.25,21.1463,20.264411Q21.2188,20.278822,21.287,20.30709Q21.3553,20.335359,21.4167,20.376398000000002Q21.478099999999998,20.417437,21.5303,20.46967Q21.5826,20.521903000000002,21.6236,20.583322Q21.6646,20.644742,21.6929,20.712987Q21.7212,20.781233,21.735599999999998,20.853682Q21.75,20.9261315,21.75,21Q21.75,21.0738685,21.735599999999998,21.146318Q21.7212,21.218767,21.6929,21.287013Q21.6646,21.355258,21.6236,21.416678Q21.5826,21.478096999999998,21.5303,21.53033Q21.478099999999998,21.582563,21.4167,21.623601999999998Q21.3553,21.664641,21.287,21.69291Q21.2188,21.721178,21.1463,21.735589Q21.073900000000002,21.75,21,21.75L11,21.75Q10.9261315,21.75,10.853682,21.735589Q10.781233,21.721178,10.712987,21.69291Q10.644742,21.664641,10.583322,21.623601999999998Q10.521903,21.582563,10.46967,21.53033Q10.417437,21.478096999999998,10.376398,21.416678Q10.335359,21.355258,10.30709,21.287013Q10.278822,21.218767,10.264410999999999,21.146318Q10.25,21.0738685,10.25,21Q10.25,20.9261315,10.264410999999999,20.853682Q10.278822,20.781233,10.30709,20.712987Q10.335359,20.644742,10.376398,20.583322Q10.417437,20.521903000000002,10.46967,20.46967Q10.521903,20.417437,10.583322,20.376398000000002Q10.644742,20.335359,10.712987,20.30709Q10.781233,20.278822,10.853682,20.264411Q10.9261315,20.25,11,20.25Z" fill-rule="evenodd" fill="#888888" fill-opacity="1"/></g></g></svg>