<svg xmlns="http://www.w3.org/2000/svg" xmlns:xlink="http://www.w3.org/1999/xlink" fill="none" version="1.1" width="30" height="30" viewBox="0 0 30 30"><defs><clipPath id="master_svg0_1191_005655"><rect x="0" y="0" width="30" height="30" rx="0"/></clipPath></defs><g clip-path="url(#master_svg0_1191_005655)"><g><path d="M21.2547,11.73401Q20.6978,12.0378,20.3059,11.53896L16.769199999999998,7.03779Q16.093600000000002,6.177885,15,6.177885Q13.90642,6.177885,13.23078,7.03779L9.69415,11.53896Q9.302209999999999,12.0378,8.74527,11.73401L7.2291,10.90701Q5.96216,10.21595,4.8057,11.079270000000001Q3.6492430000000002,11.94259,3.9516274,13.35372L6.01257,22.9714Q6.393689999999999,24.75,8.212620000000001,24.75L21.7874,24.75Q23.6063,24.75,23.9874,22.9714L26.0484,13.35372Q26.3508,11.94259,25.1943,11.079270000000001Q24.0378,10.21595,22.7709,10.90701L21.2547,11.73401ZM15.5897,7.96452L19.1264,12.46569Q20.3022,13.962209999999999,21.973,13.05086L23.4892,12.22386Q23.9115,11.993500000000001,24.297,12.28127Q24.6825,12.56905,24.5817,13.03942L22.5207,22.6571Q22.3937,23.25,21.7874,23.25L8.212620000000001,23.25Q7.606310000000001,23.25,7.47927,22.6571L5.41833,13.03942Q5.31754,12.56905,5.70302,12.28127Q6.088509999999999,11.993500000000001,6.51082,12.22386L8.02699,13.05086Q9.6978,13.9622,10.87363,12.46569L14.4103,7.96452Q14.6355,7.67789,15,7.67789Q15.3645,7.67789,15.5897,7.96452Z" fill-rule="evenodd" fill="#888888" fill-opacity="1"/></g><g><path d="M11.530484,15.469824L15,18.93934L18.46967,15.46967Q18.57516,15.364181,18.712989999999998,15.30709Q18.85082,15.25,19,15.25Q19.07387,15.25,19.14632,15.264410999999999Q19.21877,15.278822,19.287010000000002,15.30709Q19.35526,15.335359,19.41668,15.376398Q19.478099999999998,15.417437,19.53033,15.46967Q19.58256,15.521903,19.6236,15.583322Q19.66464,15.644742,19.692909999999998,15.712987Q19.72118,15.781233,19.735590000000002,15.853682Q19.75,15.9261315,19.75,16Q19.75,16.149184,19.692909999999998,16.287013Q19.635820000000002,16.424841,19.53033,16.53033L19.529870000000003,16.530792L15,21.06066L10.469824,16.530484L10.46967,16.53033Q10.364181,16.424841,10.30709,16.287013Q10.25,16.149184,10.25,16Q10.25,15.9261315,10.264410999999999,15.853682Q10.278822,15.781233,10.30709,15.712987Q10.335359,15.644742,10.376398,15.583322Q10.417437,15.521903,10.46967,15.46967Q10.521903,15.417437,10.583322,15.376398Q10.644742,15.335359,10.712987,15.30709Q10.781233,15.278822,10.853682,15.264410999999999Q10.9261315,15.25,11,15.25Q11.149184,15.25,11.287013,15.30709Q11.424841,15.364181,11.53033,15.46967L11.530484,15.469824Z" fill-rule="evenodd" fill="#888888" fill-opacity="1"/></g></g></svg>