<svg xmlns="http://www.w3.org/2000/svg" xmlns:xlink="http://www.w3.org/1999/xlink" fill="none" version="1.1" width="30" height="30" viewBox="0 0 30 30"><defs><clipPath id="master_svg0_1191_005731"><rect x="0" y="0" width="30" height="30" rx="0"/></clipPath></defs><g clip-path="url(#master_svg0_1191_005731)"><g><path d="M8.57203,19.9394Q8.78515,19.75,9.0703,19.75L24.5,19.75Q25.432,19.75,26.091,19.091Q26.75,18.432000000000002,26.75,17.5L26.75,8.5Q26.75,7.568019,26.091,6.90901Q25.432,6.25,24.5,6.25L5.5,6.25Q4.568019,6.25,3.9090097,6.9090099Q3.25,7.56802,3.25,8.5L3.25,21.8866Q3.25,22.6955,3.9879297,23.0269Q4.725861,23.3583,5.33045,22.8208L8.57203,19.9394ZM24.5,18.25L9.0703,18.25Q8.21485,18.25,7.575480000000001,18.8183L4.75,21.329900000000002L4.75,8.5Q4.75,8.18934,4.96967,7.96967Q5.18934,7.75,5.5,7.75L24.5,7.75Q24.8107,7.75,25.0303,7.96967Q25.25,8.18934,25.25,8.5L25.25,17.5Q25.25,18.25,24.5,18.25Z" fill-rule="evenodd" fill="#888888" fill-opacity="1"/></g><g><path d="M8,10.25L22,10.25Q22.073900000000002,10.25,22.1463,10.264410999999999Q22.2188,10.278822,22.287,10.30709Q22.3553,10.335359,22.4167,10.376398Q22.478099999999998,10.417437,22.5303,10.46967Q22.5826,10.521903,22.6236,10.583322Q22.6646,10.644742,22.6929,10.712987Q22.7212,10.781233,22.735599999999998,10.853682Q22.75,10.9261315,22.75,11Q22.75,11.0738685,22.735599999999998,11.146318Q22.7212,11.218767,22.6929,11.287013Q22.6646,11.355258,22.6236,11.416678Q22.5826,11.478097,22.5303,11.53033Q22.478099999999998,11.582563,22.4167,11.623602Q22.3553,11.664641,22.287,11.69291Q22.2188,11.721178,22.1463,11.735589000000001Q22.073900000000002,11.75,22,11.75L8,11.75Q7.9261315,11.75,7.853682,11.735589000000001Q7.781233,11.721178,7.712987,11.69291Q7.644742,11.664641,7.583322,11.623602Q7.521903,11.582563,7.46967,11.53033Q7.417437,11.478097,7.376398,11.416678Q7.335359,11.355258,7.30709,11.287013Q7.278822,11.218767,7.264411,11.146318Q7.25,11.0738685,7.25,11Q7.25,10.9261315,7.264411,10.853682Q7.278822,10.781233,7.30709,10.712987Q7.335359,10.644742,7.376398,10.583322Q7.417437,10.521903,7.46967,10.46967Q7.521903,10.417437,7.583322,10.376398Q7.644742,10.335359,7.712987,10.30709Q7.781233,10.278822,7.853682,10.264410999999999Q7.9261315,10.25,8,10.25Z" fill-rule="evenodd" fill="#888888" fill-opacity="1"/></g><g><path d="M8,14.25L15,14.25Q15.07387,14.25,15.14632,14.264410999999999Q15.21877,14.278822,15.28701,14.30709Q15.355260000000001,14.335359,15.41668,14.376398Q15.478100000000001,14.417437,15.53033,14.46967Q15.58256,14.521903,15.6236,14.583322Q15.66464,14.644742,15.692910000000001,14.712987Q15.72118,14.781233,15.73559,14.853682Q15.75,14.9261315,15.75,15Q15.75,15.0738685,15.73559,15.146318Q15.72118,15.218767,15.692910000000001,15.287013Q15.66464,15.355258,15.6236,15.416678Q15.58256,15.478097,15.53033,15.53033Q15.478100000000001,15.582563,15.41668,15.623602Q15.355260000000001,15.664641,15.28701,15.69291Q15.21877,15.721178,15.14632,15.735589000000001Q15.07387,15.75,15,15.75L8,15.75Q7.9261315,15.75,7.853682,15.735589000000001Q7.781233,15.721178,7.712987,15.69291Q7.644742,15.664641,7.583322,15.623602Q7.521903,15.582563,7.46967,15.53033Q7.417437,15.478097,7.376398,15.416678Q7.335359,15.355258,7.30709,15.287013Q7.278822,15.218767,7.264411,15.146318Q7.25,15.0738685,7.25,15Q7.25,14.9261315,7.264411,14.853682Q7.278822,14.781233,7.30709,14.712987Q7.335359,14.644742,7.376398,14.583322Q7.417437,14.521903,7.46967,14.46967Q7.521903,14.417437,7.583322,14.376398Q7.644742,14.335359,7.712987,14.30709Q7.781233,14.278822,7.853682,14.264410999999999Q7.9261315,14.25,8,14.25Z" fill-rule="evenodd" fill="#888888" fill-opacity="1"/></g></g></svg>