<svg xmlns="http://www.w3.org/2000/svg" xmlns:xlink="http://www.w3.org/1999/xlink" fill="none" version="1.1" width="30" height="30" viewBox="0 0 30 30"><defs><clipPath id="master_svg0_1191_005677"><rect x="0" y="0" width="30" height="30" rx="0"/></clipPath></defs><g clip-path="url(#master_svg0_1191_005677)"><g><path d="M6.25,7.5L6.25,16.5Q6.25,17.432000000000002,6.9090099,18.091Q7.56802,18.75,8.5,18.75L21.5,18.75Q22.432000000000002,18.75,23.091,18.091Q23.75,17.432000000000002,23.75,16.5L23.75,7.5Q23.75,6.568019,23.091,5.9090099Q22.432000000000002,5.25,21.5,5.25L8.5,5.25Q7.56802,5.25,6.9090099,5.9090097Q6.25,6.56802,6.25,7.5ZM8.5,17.25Q7.75,17.25,7.75,16.5L7.75,7.5Q7.75,6.75,8.5,6.75L21.5,6.75Q22.25,6.75,22.25,7.5L22.25,16.5Q22.25,17.25,21.5,17.25L8.5,17.25Z" fill-rule="evenodd" fill="#888888" fill-opacity="1"/></g><g><path d="M22.529600000000002,15.58417L22.5303,15.58467Q22.6301,15.66493,22.750999999999998,15.707460000000001Q22.8719,15.75,23,15.75Q23.0739,15.75,23.1463,15.73559Q23.2188,15.72118,23.287,15.692910000000001Q23.3553,15.66464,23.4167,15.6236Q23.4781,15.58256,23.5303,15.53033Q23.5826,15.478100000000001,23.6236,15.41668Q23.6646,15.355260000000001,23.6929,15.28701Q23.7212,15.21877,23.7356,15.14632Q23.75,15.07387,23.75,15Q23.75,14.91584,23.7313,14.833770000000001Q23.7127,14.7517,23.6763,14.67581Q23.6399,14.599920000000001,23.5876,14.53398Q23.5353,14.46804,23.4697,14.415320000000001L23.469,14.4147L20.9157,12.3634Q20.592100000000002,12.103390000000001,20.177300000000002,12.08865Q19.7624,12.0739,19.4211,12.31026L16.92512,14.039010000000001L12.3905,9.799852Q12.007380000000001,9.441702,11.48341,9.464127Q10.95944,9.486553,10.60833,9.876126L6.442881,14.49789Q6.349758,14.60121,6.299879,14.73106Q6.25,14.8609,6.25,15Q6.25,15.07387,6.264411,15.14632Q6.278822,15.21877,6.30709,15.28701Q6.335359,15.355260000000001,6.376398,15.41668Q6.417437,15.478100000000001,6.46967,15.53033Q6.521903,15.58256,6.583322,15.6236Q6.644742,15.66464,6.712987,15.692910000000001Q6.781233,15.72118,6.853682,15.73559Q6.9261315,15.75,7,15.75Q7.159324,15.75,7.304889,15.68523Q7.450454,15.62046,7.557119,15.50211L7.557567,15.501619999999999L11.55212,11.06948L16.04807,15.27247Q16.37043,15.573830000000001,16.81054,15.606010000000001Q17.2506,15.63819,17.6134,15.38693L20.1218,13.64964L22.529600000000002,15.58417Z" fill-rule="evenodd" fill="#888888" fill-opacity="1"/></g><g><ellipse cx="17.5" cy="9.5" rx="1.5" ry="1.5" fill="#888888" fill-opacity="1"/></g><g><path d="M7,20.25L23,20.25Q23.0739,20.25,23.1463,20.264411Q23.2188,20.278822,23.287,20.30709Q23.3553,20.335359,23.4167,20.376398000000002Q23.4781,20.417437,23.5303,20.46967Q23.5826,20.521903000000002,23.6236,20.583322Q23.6646,20.644742,23.6929,20.712987Q23.7212,20.781233,23.7356,20.853682Q23.75,20.9261315,23.75,21Q23.75,21.0738685,23.7356,21.146318Q23.7212,21.218767,23.6929,21.287013Q23.6646,21.355258,23.6236,21.416678Q23.5826,21.478096999999998,23.5303,21.53033Q23.4781,21.582563,23.4167,21.623601999999998Q23.3553,21.664641,23.287,21.69291Q23.2188,21.721178,23.1463,21.735589Q23.0739,21.75,23,21.75L7,21.75Q6.9261315,21.75,6.853682,21.735589Q6.781233,21.721178,6.712987,21.69291Q6.644742,21.664641,6.583322,21.623601999999998Q6.521903,21.582563,6.46967,21.53033Q6.417437,21.478096999999998,6.376398,21.416678Q6.335359,21.355258,6.30709,21.287013Q6.278822,21.218767,6.264411,21.146318Q6.25,21.0738685,6.25,21Q6.25,20.9261315,6.264411,20.853682Q6.278822,20.781233,6.30709,20.712987Q6.335359,20.644742,6.376398,20.583322Q6.417437,20.521903000000002,6.46967,20.46967Q6.521903,20.417437,6.583322,20.376398000000002Q6.644742,20.335359,6.712987,20.30709Q6.781233,20.278822,6.853682,20.264411Q6.9261315,20.25,7,20.25Z" fill-rule="evenodd" fill="#888888" fill-opacity="1"/></g><g><path d="M7,23.25L15,23.25Q15.07387,23.25,15.14632,23.264411Q15.21877,23.278822,15.28701,23.30709Q15.35526,23.335359,15.41668,23.376398000000002Q15.4781,23.417437,15.53033,23.46967Q15.58256,23.521903000000002,15.6236,23.583322Q15.66464,23.644742,15.69291,23.712987Q15.72118,23.781233,15.73559,23.853682Q15.75,23.9261315,15.75,24Q15.75,24.0738685,15.73559,24.146318Q15.72118,24.218767,15.69291,24.287013Q15.66464,24.355258,15.6236,24.416678Q15.58256,24.478096999999998,15.53033,24.53033Q15.4781,24.582563,15.41668,24.623601999999998Q15.35526,24.664641,15.28701,24.69291Q15.21877,24.721178,15.14632,24.735589Q15.07387,24.75,15,24.75L7,24.75Q6.9261315,24.75,6.853682,24.735589Q6.781233,24.721178,6.712987,24.69291Q6.644742,24.664641,6.583322,24.623601999999998Q6.521903,24.582563,6.46967,24.53033Q6.417437,24.478096999999998,6.376398,24.416678Q6.335359,24.355258,6.30709,24.287013Q6.278822,24.218767,6.264411,24.146318Q6.25,24.0738685,6.25,24Q6.25,23.9261315,6.264411,23.853682Q6.278822,23.781233,6.30709,23.712987Q6.335359,23.644742,6.376398,23.583322Q6.417437,23.521903000000002,6.46967,23.46967Q6.521903,23.417437,6.583322,23.376398000000002Q6.644742,23.335359,6.712987,23.30709Q6.781233,23.278822,6.853682,23.264411Q6.9261315,23.25,7,23.25Z" fill-rule="evenodd" fill="#888888" fill-opacity="1"/></g></g></svg>