<svg xmlns="http://www.w3.org/2000/svg" xmlns:xlink="http://www.w3.org/1999/xlink" fill="none" version="1.1" width="30" height="30" viewBox="0 0 30 30"><defs><clipPath id="master_svg0_1191_005719"><rect x="0" y="0" width="30" height="30" rx="0"/></clipPath></defs><g clip-path="url(#master_svg0_1191_005719)"><g><path d="M8,22.25L22,22.25Q22.073900000000002,22.25,22.1463,22.264411Q22.2188,22.278822,22.287,22.30709Q22.3553,22.335359,22.4167,22.376398000000002Q22.478099999999998,22.417437,22.5303,22.46967Q22.5826,22.521903000000002,22.6236,22.583322Q22.6646,22.644742,22.6929,22.712987Q22.7212,22.781233,22.735599999999998,22.853682Q22.75,22.9261315,22.75,23Q22.75,23.0738685,22.735599999999998,23.146318Q22.7212,23.218767,22.6929,23.287013Q22.6646,23.355258,22.6236,23.416678Q22.5826,23.478096999999998,22.5303,23.53033Q22.478099999999998,23.582563,22.4167,23.623601999999998Q22.3553,23.664641,22.287,23.69291Q22.2188,23.721178,22.1463,23.735589Q22.073900000000002,23.75,22,23.75L8,23.75Q7.9261315,23.75,7.853682,23.735589Q7.781233,23.721178,7.712987,23.69291Q7.644742,23.664641,7.583322,23.623601999999998Q7.521903,23.582563,7.46967,23.53033Q7.417437,23.478096999999998,7.376398,23.416678Q7.335359,23.355258,7.30709,23.287013Q7.278822,23.218767,7.264411,23.146318Q7.25,23.0738685,7.25,23Q7.25,22.9261315,7.264411,22.853682Q7.278822,22.781233,7.30709,22.712987Q7.335359,22.644742,7.376398,22.583322Q7.417437,22.521903000000002,7.46967,22.46967Q7.521903,22.417437,7.583322,22.376398000000002Q7.644742,22.335359,7.712987,22.30709Q7.781233,22.278822,7.853682,22.264411Q7.9261315,22.25,8,22.25Z" fill-rule="evenodd" fill="#888888" fill-opacity="1"/></g><g><path d="M12.25,8L12.25,20Q12.25,20.724899999999998,12.762563,21.2374Q13.275127,21.75,14,21.75L16,21.75Q16.72487,21.75,17.23744,21.2374Q17.75,20.724899999999998,17.75,20L17.75,8Q17.75,7.275126,17.23744,6.762563Q16.72487,6.25,16,6.25L14,6.25Q13.275126,6.25,12.762563,6.762563Q12.25,7.275126,12.25,8ZM13.823223,20.1768Q13.75,20.1036,13.75,20L13.75,8Q13.75,7.896447,13.823223,7.8232230000000005Q13.896447,7.75,14,7.75L16,7.75Q16.25,7.75,16.25,8L16.25,20Q16.25,20.25,16,20.25L14,20.25Q13.896446,20.25,13.823223,20.1768Z" fill-rule="evenodd" fill="#888888" fill-opacity="1"/></g><g><path d="M10,21.75L13,21.75Q13.07387,21.75,13.14632,21.735599999999998Q13.21877,21.7212,13.28701,21.6929Q13.355260000000001,21.6646,13.41668,21.6236Q13.478100000000001,21.5826,13.53033,21.5303Q13.58256,21.478099999999998,13.6236,21.4167Q13.66464,21.3553,13.692910000000001,21.287Q13.72118,21.2188,13.73559,21.1463Q13.75,21.073900000000002,13.75,21Q13.75,20.92613,13.73559,20.85368Q13.72118,20.78123,13.692910000000001,20.712989999999998Q13.66464,20.64474,13.6236,20.58332Q13.58256,20.521900000000002,13.53033,20.46967Q13.478100000000001,20.41744,13.41668,20.3764Q13.355260000000001,20.33536,13.28701,20.307090000000002Q13.21877,20.27882,13.14632,20.264409999999998Q13.07387,20.25,13,20.25L10,20.25Q9.896446,20.25,9.823223,20.17678Q9.75,20.10355,9.75,20L9.75,12Q9.75,11.75,10,11.75L13,11.75Q13.07387,11.75,13.14632,11.735589000000001Q13.21877,11.721178,13.28701,11.69291Q13.355260000000001,11.664641,13.41668,11.623602Q13.478100000000001,11.582563,13.53033,11.53033Q13.58256,11.478097,13.6236,11.416678Q13.66464,11.355258,13.692910000000001,11.287013Q13.72118,11.218767,13.73559,11.146318Q13.75,11.0738685,13.75,11Q13.75,10.9261315,13.73559,10.853682Q13.72118,10.781233,13.692910000000001,10.712987Q13.66464,10.644742,13.6236,10.583322Q13.58256,10.521903,13.53033,10.46967Q13.478100000000001,10.417437,13.41668,10.376398Q13.355260000000001,10.335359,13.28701,10.30709Q13.21877,10.278822,13.14632,10.264410999999999Q13.07387,10.25,13,10.25L10,10.25Q9.275126,10.25,8.762563,10.762563Q8.25,11.275126,8.25,12L8.25,20Q8.25,20.72487,8.762563,21.2374Q9.275127,21.75,10,21.75Z" fill-rule="evenodd" fill="#888888" fill-opacity="1"/></g><g><path d="M17,12.25L20,12.25Q20.72487,12.25,21.23744,12.762563Q21.75,13.275126,21.75,14L21.75,20Q21.75,20.72487,21.23744,21.23744Q20.72487,21.75,20,21.75L17,21.75Q16.9261315,21.75,16.853682,21.735590000000002Q16.781233,21.72118,16.712987,21.692909999999998Q16.644742,21.66464,16.583322,21.6236Q16.521903000000002,21.58256,16.46967,21.53033Q16.417437,21.478099999999998,16.376398000000002,21.41668Q16.335359,21.35526,16.30709,21.287010000000002Q16.278822,21.21877,16.264411,21.14632Q16.25,21.07387,16.25,21Q16.25,20.92613,16.264411,20.85368Q16.278822,20.78123,16.30709,20.712989999999998Q16.335359,20.64474,16.376398000000002,20.58332Q16.417437,20.5219,16.46967,20.46967Q16.521903000000002,20.41744,16.583322,20.3764Q16.644742,20.33536,16.712987,20.30709Q16.781233,20.27882,16.853682,20.264409999999998Q16.9261315,20.25,17,20.25L20,20.25Q20.25,20.25,20.25,20L20.25,14Q20.25,13.896446,20.17678,13.823223Q20.10355,13.75,20,13.75L17,13.75Q16.9261315,13.75,16.853682,13.735589000000001Q16.781233,13.721178,16.712987,13.69291Q16.644742,13.664641,16.583322,13.623602Q16.521903000000002,13.582563,16.46967,13.53033Q16.417437,13.478097,16.376398000000002,13.416678Q16.335359,13.355258,16.30709,13.287013Q16.278822,13.218767,16.264411,13.146318Q16.25,13.0738685,16.25,13Q16.25,12.9261315,16.264411,12.853682Q16.278822,12.781233,16.30709,12.712987Q16.335359,12.644742,16.376398000000002,12.583322Q16.417437,12.521903,16.46967,12.46967Q16.521903000000002,12.417437,16.583322,12.376398Q16.644742,12.335359,16.712987,12.30709Q16.781233,12.278822,16.853682,12.264410999999999Q16.9261315,12.25,17,12.25Z" fill-rule="evenodd" fill="#888888" fill-opacity="1"/></g></g></svg>