<svg xmlns="http://www.w3.org/2000/svg" xmlns:xlink="http://www.w3.org/1999/xlink" fill="none" version="1.1" width="30" height="30" viewBox="0 0 30 30"><defs><clipPath id="master_svg0_1191_005707"><rect x="0" y="0" width="30" height="30" rx="0"/></clipPath></defs><g clip-path="url(#master_svg0_1191_005707)"><g><rect x="6" y="6" width="8" height="12" rx="1.5" fill-opacity="0" stroke-opacity="1" stroke="#888888" fill="none" stroke-width="1.5"/></g><g><rect x="16" y="12" width="8" height="12" rx="1.5" fill-opacity="0" stroke-opacity="1" stroke="#888888" fill="none" stroke-width="1.5"/></g><g><path d="M6,21.25L14,21.25Q14.07387,21.25,14.14632,21.264411Q14.21877,21.278822,14.28701,21.30709Q14.35526,21.335359,14.41668,21.376398000000002Q14.4781,21.417437,14.53033,21.46967Q14.58256,21.521903000000002,14.6236,21.583322Q14.66464,21.644742,14.69291,21.712987Q14.72118,21.781233,14.73559,21.853682Q14.75,21.9261315,14.75,22Q14.75,22.0738685,14.73559,22.146318Q14.72118,22.218767,14.69291,22.287013Q14.66464,22.355258,14.6236,22.416678Q14.58256,22.478096999999998,14.53033,22.53033Q14.4781,22.582563,14.41668,22.623601999999998Q14.35526,22.664641,14.28701,22.69291Q14.21877,22.721178,14.14632,22.735589Q14.07387,22.75,14,22.75L6,22.75Q5.9261315,22.75,5.853682,22.735589Q5.781233,22.721178,5.712987,22.69291Q5.644742,22.664641,5.583322,22.623601999999998Q5.521903,22.582563,5.46967,22.53033Q5.417437,22.478096999999998,5.376398,22.416678Q5.335359,22.355258,5.30709,22.287013Q5.278822,22.218767,5.264411,22.146318Q5.25,22.0738685,5.25,22Q5.25,21.9261315,5.264411,21.853682Q5.278822,21.781233,5.30709,21.712987Q5.335359,21.644742,5.376398,21.583322Q5.417437,21.521903000000002,5.46967,21.46967Q5.521903,21.417437,5.583322,21.376398000000002Q5.644742,21.335359,5.712987,21.30709Q5.781233,21.278822,5.853682,21.264411Q5.9261315,21.25,6,21.25Z" fill-rule="evenodd" fill="#888888" fill-opacity="1"/></g><g><path d="M16,7.25L24,7.25Q24.07387,7.25,24.14632,7.264411Q24.21877,7.278822,24.287010000000002,7.30709Q24.35526,7.335359,24.41668,7.376398Q24.478099999999998,7.417437,24.53033,7.46967Q24.58256,7.521903,24.6236,7.583322Q24.66464,7.644742,24.692909999999998,7.712987Q24.72118,7.781233,24.735590000000002,7.853682Q24.75,7.9261315,24.75,8Q24.75,8.0738685,24.735590000000002,8.146318Q24.72118,8.218767,24.692909999999998,8.287013Q24.66464,8.355258,24.6236,8.416678Q24.58256,8.478097,24.53033,8.53033Q24.478099999999998,8.582563,24.41668,8.623602Q24.35526,8.664641,24.287010000000002,8.69291Q24.21877,8.721178,24.14632,8.735589000000001Q24.07387,8.75,24,8.75L16,8.75Q15.9261315,8.75,15.853682,8.735589000000001Q15.781233,8.721178,15.712987,8.69291Q15.644742,8.664641,15.583322,8.623602Q15.521903,8.582563,15.46967,8.53033Q15.417437,8.478097,15.376398,8.416678Q15.335359,8.355258,15.30709,8.287013Q15.278822,8.218767,15.264410999999999,8.146318Q15.25,8.0738685,15.25,8Q15.25,7.9261315,15.264410999999999,7.853682Q15.278822,7.781233,15.30709,7.712987Q15.335359,7.644742,15.376398,7.583322Q15.417437,7.521903,15.46967,7.46967Q15.521903,7.417437,15.583322,7.376398Q15.644742,7.335359,15.712987,7.30709Q15.781233,7.278822,15.853682,7.264411Q15.9261315,7.25,16,7.25Z" fill-rule="evenodd" fill="#888888" fill-opacity="1"/></g></g></svg>