<?xml version="1.0" encoding="UTF-8"?>
<svg width="32px" height="32px" viewBox="0 0 32 32" version="1.1" xmlns="http://www.w3.org/2000/svg" xmlns:xlink="http://www.w3.org/1999/xlink">
    <!-- Generator: Sketch 61.2 (89653) - https://sketch.com -->
    <title>icon/富文本-normal</title>
    <desc>Created with Sketch.</desc>
    <g id="icon/富文本-normal" stroke="none" stroke-width="1" fill="none" fill-rule="evenodd">
        <g fill="#888888" id="编组-5">
            <g transform="translate(3.000000, 3.000000)">
                <g id="编组-8">
                    <path d="M25,22 C25.5522847,22 26,22.4477153 26,23 L26,25 L26,25 C26,25.5522847 25.5522847,26 25,26 L23,26 C22.4477153,26 22,25.5522847 22,25 C22,24.4477153 22.4477153,24 23,24 L23.999,23.999 L24,23 C24,22.4477153 24.4477153,22 25,22 Z M1,22 C1.55228475,22 2,22.4477153 2,23 L2,23.999 L3,24 C3.55228475,24 4,24.4477153 4,25 C4,25.5522847 3.55228475,26 3,26 L1,26 L1,26 C0.44771525,26 -1.08801856e-13,25.5522847 -1.08801856e-13,25 L-1.08801856e-13,23 C-1.08801856e-13,22.4477153 0.44771525,22 1,22 Z M8,24 C8.55228475,24 9,24.4477153 9,25 C9,25.5522847 8.55228475,26 8,26 L7,26 C6.44771525,26 6,25.5522847 6,25 C6,24.4477153 6.44771525,24 7,24 L8,24 Z M14,24 C14.5522847,24 15,24.4477153 15,25 C15,25.5522847 14.5522847,26 14,26 L12,26 C11.4477153,26 11,25.5522847 11,25 C11,24.4477153 11.4477153,24 12,24 L14,24 Z M19,24 C19.5522847,24 20,24.4477153 20,25 C20,25.5522847 19.5522847,26 19,26 L18,26 C17.4477153,26 17,25.5522847 17,25 C17,24.4477153 17.4477153,24 18,24 L19,24 Z M25,17 C25.5522847,17 26,17.4477153 26,18 L26,19 C26,19.5522847 25.5522847,20 25,20 C24.4477153,20 24,19.5522847 24,19 L24,18 C24,17.4477153 24.4477153,17 25,17 Z M1,17 C1.55228475,17 2,17.4477153 2,18 L2,19 C2,19.5522847 1.55228475,20 1,20 C0.44771525,20 -1.09245946e-13,19.5522847 -1.09245946e-13,19 L-1.09245946e-13,18 C-1.09245946e-13,17.4477153 0.44771525,17 1,17 Z M19,6 C19.5522847,6 20,6.44771525 20,7 L20,9 C20,9.55228475 19.5522847,10 19,10 C18.4477153,10 18,9.55228475 18,9 L18,8 L14,8 L13.999,17.999 L15,18 C15.5522847,18 16,18.4477153 16,19 C16,19.5522847 15.5522847,20 15,20 L11,20 C10.4477153,20 10,19.5522847 10,19 C10,18.4477153 10.4477153,18 11,18 L11.999,17.999 L12,8 L8,8 L8,9 C8,9.55228475 7.55228475,10 7,10 C6.44771525,10 6,9.55228475 6,9 L6,7 C6,6.44771525 6.44771525,6 7,6 L19,6 Z M1,11 C1.55228475,11 2,11.4477153 2,12 L2,14 C2,14.5522847 1.55228475,15 1,15 C0.44771525,15 -1.10134124e-13,14.5522847 -1.10134124e-13,14 L-1.10134124e-13,12 C-1.10134124e-13,11.4477153 0.44771525,11 1,11 Z M25,11 C25.5522847,11 26,11.4477153 26,12 L26,14 C26,14.5522847 25.5522847,15 25,15 C24.4477153,15 24,14.5522847 24,14 L24,12 C24,11.4477153 24.4477153,11 25,11 Z M25,6 C25.5522847,6 26,6.44771525 26,7 L26,8 C26,8.55228475 25.5522847,9 25,9 C24.4477153,9 24,8.55228475 24,8 L24,7 C24,6.44771525 24.4477153,6 25,6 Z M1,6 C1.55228475,6 2,6.44771525 2,7 L2,8 C2,8.55228475 1.55228475,9 1,9 C0.44771525,9 -1.09245946e-13,8.55228475 -1.09245946e-13,8 L-1.09245946e-13,7 C-1.09245946e-13,6.44771525 0.44771525,6 1,6 Z M25,-1.84563476e-12 C25.5522847,-1.84563476e-12 26,0.44771525 26,1 L26,3 C26,3.55228475 25.5522847,4 25,4 C24.4477153,4 24,3.55228475 24,3 L24,2 L23,2 C22.4477153,2 22,1.55228475 22,1 C22,0.44771525 22.4477153,-1.84563476e-12 23,-1.84563476e-12 L25,-1.84563476e-12 Z M3,-1.84652293e-12 C3.55228475,-1.84652293e-12 4,0.44771525 4,1 C4,1.55228475 3.55228475,2 3,2 L2,2 L2,3 C2,3.55228475 1.55228475,4 1,4 C0.44771525,4 1.71040959e-12,3.55228475 1.71040959e-12,3 L1.71040959e-12,1 C1.71040959e-12,0.44771525 0.44771525,-1.84652293e-12 1,-1.84652293e-12 L3,-1.84652293e-12 Z M19,1.90425453e-12 C19.5522847,1.90425453e-12 20,0.44771525 20,1 C20,1.55228475 19.5522847,2 19,2 L18,2 C17.4477153,2 17,1.55228475 17,1 C17,0.44771525 17.4477153,1.90425453e-12 18,1.90425453e-12 L19,1.90425453e-12 Z M14,1.90425453e-12 C14.5522847,1.90425453e-12 15,0.44771525 15,1 C15,1.55228475 14.5522847,2 14,2 L12,2 C11.4477153,2 11,1.55228475 11,1 C11,0.44771525 11.4477153,1.90425453e-12 12,1.90425453e-12 L14,1.90425453e-12 Z M8,1.90425453e-12 C8.55228475,1.90425453e-12 9,0.44771525 9,1 C9,1.55228475 8.55228475,2 8,2 L7,2 C6.44771525,2 6,1.55228475 6,1 C6,0.44771525 6.44771525,1.90425453e-12 7,1.90425453e-12 L8,1.90425453e-12 Z" id="形状"></path>
                </g>
            </g>
        </g>
    </g>
</svg>