<?xml version="1.0" encoding="UTF-8"?>
<svg width="32px" height="32px" viewBox="0 0 32 32" version="1.1" xmlns="http://www.w3.org/2000/svg" xmlns:xlink="http://www.w3.org/1999/xlink">
    <!-- Generator: Sketch 61.2 (89653) - https://sketch.com -->
    <title>icon/搜索模块-normal</title>
    <desc>Created with Sketch.</desc>
    <g id="icon/搜索模块-normal" stroke="none" stroke-width="1" fill="none" fill-rule="evenodd">
        <g fill="#888888" fill-rule="nonzero" id="编组-4">
            <g transform="translate(3.000000, 3.000000)">
                <path d="M15,6 C19.9705627,6 24,10.0294373 24,15 C24,17.124779 23.2636898,19.0775836 22.0323074,20.6171757 L26.3137085,24.8994949 C26.7042328,25.2900192 26.7042328,25.9231842 26.3137085,26.3137085 C25.9231842,26.7042328 25.2900192,26.7042328 24.8994949,26.3137085 L20.6171757,22.0323074 C19.0775836,23.2636898 17.124779,24 15,24 C10.0294373,24 6,19.9705627 6,15 C6,10.0294373 10.0294373,6 15,6 Z M23,0 C24.6568542,0 26,1.34314575 26,3 L26,8 C26,8.55228475 25.5522847,9 25,9 C24.4477153,9 24,8.55228475 24,8 L24,3 C24,2.48716416 23.6139598,2.06449284 23.1166211,2.00672773 L23,2 L3,2 C2.48716416,2 2.06449284,2.38604019 2.00672773,2.88337887 L2,3 L2,23 C2,23.5128358 2.38604019,23.9355072 2.88337887,23.9932723 L3,24 L8,24 C8.55228475,24 9,24.4477153 9,25 C9,25.5522847 8.55228475,26 8,26 L3,26 C1.34314575,26 0,24.6568542 0,23 L0,3 C0,1.34314575 1.34314575,0 3,0 L23,0 Z M15,8 C11.1340068,8 8,11.1340068 8,15 C8,18.8659932 11.1340068,22 15,22 C18.8659932,22 22,18.8659932 22,15 C22,11.1340068 18.8659932,8 15,8 Z" id="形状"></path>
            </g>
        </g>
    </g>
</svg>