<svg xmlns="http://www.w3.org/2000/svg" xmlns:xlink="http://www.w3.org/1999/xlink" fill="none" version="1.1" width="30" height="30" viewBox="0 0 30 30"><defs><clipPath id="master_svg0_1191_005683"><rect x="0" y="0" width="30" height="30" rx="0"/></clipPath></defs><g clip-path="url(#master_svg0_1191_005683)"><g><ellipse cx="15" cy="16" rx="8" ry="8" fill-opacity="0" stroke-opacity="1" stroke="#888888" fill="none" stroke-width="1.5"/></g><g><path d="M15.853200000000001,12.474928Q15.93542,12.374431,15.97907,12.25214Q16.02273,12.129849,16.02273,12Q16.02273,11.9261315,16.00832,11.853682Q15.99391,11.781233,15.96564,11.712987Q15.93737,11.644742,15.896329999999999,11.583322Q15.85529,11.521903,15.80306,11.46967Q15.750820000000001,11.417437,15.6894,11.376398Q15.62799,11.335359,15.55974,11.30709Q15.49149,11.278822,15.419039999999999,11.264410999999999Q15.3466,11.25,15.27273,11.25Q15.10402,11.25,14.95156,11.322248Q14.79909,11.394495,14.692260000000001,11.525072L14.69191,11.525501L12.0876747,14.70845Q11.586847,15.32058,11.9255345,16.03529Q12.264222,16.75,13.05512,16.75L16.5809,16.75L14.65333,19.5771L14.65306,19.5775Q14.52273,19.76865,14.52273,20Q14.52273,20.07387,14.53714,20.14632Q14.55155,20.21877,14.57982,20.287010000000002Q14.60809,20.35526,14.64912,20.41668Q14.69016,20.478099999999998,14.7424,20.53033Q14.79463,20.58256,14.85605,20.6236Q14.91747,20.66464,14.985710000000001,20.692909999999998Q15.05396,20.72118,15.12641,20.735590000000002Q15.19886,20.75,15.27273,20.75Q15.36434,20.75,15.45326,20.72795Q15.54218,20.7059,15.62317,20.66309Q15.70417,20.62029,15.77248,20.559240000000003Q15.84079,20.4982,15.8924,20.4225L18.08672,17.20417Q18.511020000000002,16.58185,18.15908,15.91593Q17.80714,15.25,17.05393,15.25L13.58268,15.25L15.853200000000001,12.474928L15.853200000000001,12.474928Z" fill-rule="evenodd" fill="#888888" fill-opacity="1"/></g><g><path d="M10.03819,7.47289Q11.45406,6.75,13,6.75Q13.07387,6.75,13.14632,6.735589Q13.21877,6.721178,13.28701,6.69291Q13.355260000000001,6.664641,13.41668,6.623602Q13.478100000000001,6.582563,13.53033,6.53033Q13.58256,6.478097,13.6236,6.416678Q13.66464,6.355258,13.692910000000001,6.287013Q13.72118,6.218767,13.73559,6.146318Q13.75,6.0738685,13.75,6Q13.75,5.9261315,13.73559,5.853682Q13.72118,5.781233,13.692910000000001,5.712987Q13.66464,5.644742,13.6236,5.583322Q13.58256,5.521903,13.53033,5.46967Q13.478100000000001,5.417437,13.41668,5.376398Q13.355260000000001,5.335359,13.28701,5.30709Q13.21877,5.278822,13.14632,5.264411Q13.07387,5.25,13,5.25Q11.09329,5.25,9.3561,6.136943Q7.69555,6.98476,6.422443,8.52154Q6.338853,8.622440000000001,6.294427,8.7457Q6.25,8.868970000000001,6.25,9Q6.25,9.07387,6.264411,9.14632Q6.278822,9.21877,6.30709,9.28701Q6.335359,9.35526,6.376398,9.41668Q6.417437,9.4781,6.46967,9.53033Q6.521903,9.58256,6.583322,9.6236Q6.644742,9.66464,6.712987,9.69291Q6.781233,9.72118,6.853682,9.73559Q6.9261315,9.75,7,9.75Q7.16751,9.75,7.319102,9.67873Q7.470694,9.60746,7.577557,9.47846Q8.65325,8.17999,10.03819,7.47289Z" fill-rule="evenodd" fill="#888888" fill-opacity="1"/></g><g transform="matrix(-1,0,0,1,46,0)"><path d="M26.03819,7.47289Q27.45406,6.75,29,6.75Q29.07387,6.75,29.14632,6.735589Q29.21877,6.721178,29.287010000000002,6.69291Q29.35526,6.664641,29.41668,6.623602Q29.4781,6.582563,29.53033,6.53033Q29.58256,6.478097,29.6236,6.416678Q29.66464,6.355258,29.69291,6.287013Q29.72118,6.218767,29.735590000000002,6.146318Q29.75,6.0738685,29.75,6Q29.75,5.9261315,29.735590000000002,5.853682Q29.72118,5.781233,29.69291,5.712987Q29.66464,5.644742,29.6236,5.583322Q29.58256,5.521903,29.53033,5.46967Q29.4781,5.417437,29.41668,5.376398Q29.35526,5.335359,29.287010000000002,5.30709Q29.21877,5.278822,29.14632,5.264411Q29.07387,5.25,29,5.25Q27.09329,5.25,25.3561,6.136943Q23.695768,6.984649,22.422778,8.52113L22.422443,8.52154Q22.338853,8.622440000000001,22.294427,8.7457Q22.25,8.868970000000001,22.25,9Q22.25,9.07387,22.264411,9.14632Q22.278822,9.21877,22.30709,9.28701Q22.335359,9.35526,22.376398000000002,9.41668Q22.417437,9.4781,22.46967,9.53033Q22.521903000000002,9.58256,22.583322,9.6236Q22.644742,9.66464,22.712987,9.69291Q22.781233,9.72118,22.853682,9.73559Q22.9261315,9.75,23,9.75Q23.16751,9.75,23.319102,9.67873Q23.470694,9.60746,23.577557,9.47846L23.577766,9.47821Q24.65338,8.17992,26.03819,7.47289Z" fill-rule="evenodd" fill="#888888" fill-opacity="1"/></g></g></svg>