<svg xmlns="http://www.w3.org/2000/svg" xmlns:xlink="http://www.w3.org/1999/xlink" fill="none" version="1.1" width="30" height="30" viewBox="0 0 30 30"><defs><clipPath id="master_svg0_1191_005712"><rect x="0" y="0" width="30" height="30" rx="0"/></clipPath></defs><g clip-path="url(#master_svg0_1191_005712)"><g><rect x="6" y="6" width="8" height="8" rx="1.5" fill-opacity="0" stroke-opacity="1" stroke="#888888" fill="none" stroke-width="1.5"/></g><g><rect x="16" y="6" width="8" height="8" rx="1.5" fill-opacity="0" stroke-opacity="1" stroke="#888888" fill="none" stroke-width="1.5"/></g><g><rect x="6" y="16" width="8" height="8" rx="1.5" fill-opacity="0" stroke-opacity="1" stroke="#888888" fill="none" stroke-width="1.5"/></g><g><path d="M16,16.25L24,16.25Q24.07387,16.25,24.14632,16.264411Q24.21877,16.278822,24.287010000000002,16.30709Q24.35526,16.335359,24.41668,16.376398000000002Q24.478099999999998,16.417437,24.53033,16.46967Q24.58256,16.521903000000002,24.6236,16.583322Q24.66464,16.644742,24.692909999999998,16.712987Q24.72118,16.781233,24.735590000000002,16.853682Q24.75,16.9261315,24.75,17Q24.75,17.0738685,24.735590000000002,17.146318Q24.72118,17.218767,24.692909999999998,17.287013Q24.66464,17.355258,24.6236,17.416678Q24.58256,17.478096999999998,24.53033,17.53033Q24.478099999999998,17.582563,24.41668,17.623601999999998Q24.35526,17.664641,24.287010000000002,17.69291Q24.21877,17.721178,24.14632,17.735589Q24.07387,17.75,24,17.75L16,17.75Q15.9261315,17.75,15.853682,17.735589Q15.781233,17.721178,15.712987,17.69291Q15.644742,17.664641,15.583322,17.623601999999998Q15.521903,17.582563,15.46967,17.53033Q15.417437,17.478096999999998,15.376398,17.416678Q15.335359,17.355258,15.30709,17.287013Q15.278822,17.218767,15.264410999999999,17.146318Q15.25,17.0738685,15.25,17Q15.25,16.9261315,15.264410999999999,16.853682Q15.278822,16.781233,15.30709,16.712987Q15.335359,16.644742,15.376398,16.583322Q15.417437,16.521903000000002,15.46967,16.46967Q15.521903,16.417437,15.583322,16.376398000000002Q15.644742,16.335359,15.712987,16.30709Q15.781233,16.278822,15.853682,16.264411Q15.9261315,16.25,16,16.25Z" fill-rule="evenodd" fill="#888888" fill-opacity="1"/></g><g><path d="M16,22.25L24,22.25Q24.07387,22.25,24.14632,22.264411Q24.21877,22.278822,24.287010000000002,22.30709Q24.35526,22.335359,24.41668,22.376398000000002Q24.478099999999998,22.417437,24.53033,22.46967Q24.58256,22.521903000000002,24.6236,22.583322Q24.66464,22.644742,24.692909999999998,22.712987Q24.72118,22.781233,24.735590000000002,22.853682Q24.75,22.9261315,24.75,23Q24.75,23.0738685,24.735590000000002,23.146318Q24.72118,23.218767,24.692909999999998,23.287013Q24.66464,23.355258,24.6236,23.416678Q24.58256,23.478096999999998,24.53033,23.53033Q24.478099999999998,23.582563,24.41668,23.623601999999998Q24.35526,23.664641,24.287010000000002,23.69291Q24.21877,23.721178,24.14632,23.735589Q24.07387,23.75,24,23.75L16,23.75Q15.9261315,23.75,15.853682,23.735589Q15.781233,23.721178,15.712987,23.69291Q15.644742,23.664641,15.583322,23.623601999999998Q15.521903,23.582563,15.46967,23.53033Q15.417437,23.478096999999998,15.376398,23.416678Q15.335359,23.355258,15.30709,23.287013Q15.278822,23.218767,15.264410999999999,23.146318Q15.25,23.0738685,15.25,23Q15.25,22.9261315,15.264410999999999,22.853682Q15.278822,22.781233,15.30709,22.712987Q15.335359,22.644742,15.376398,22.583322Q15.417437,22.521903000000002,15.46967,22.46967Q15.521903,22.417437,15.583322,22.376398000000002Q15.644742,22.335359,15.712987,22.30709Q15.781233,22.278822,15.853682,22.264411Q15.9261315,22.25,16,22.25Z" fill-rule="evenodd" fill="#888888" fill-opacity="1"/></g><g><path d="M20,19.25L24,19.25Q24.07387,19.25,24.14632,19.264411Q24.21877,19.278822,24.287010000000002,19.30709Q24.35526,19.335359,24.41668,19.376398000000002Q24.4781,19.417437,24.53033,19.46967Q24.58256,19.521903000000002,24.6236,19.583322Q24.66464,19.644742,24.69291,19.712987Q24.72118,19.781233,24.735590000000002,19.853682Q24.75,19.9261315,24.75,20Q24.75,20.0738685,24.735590000000002,20.146318Q24.72118,20.218767,24.69291,20.287013Q24.66464,20.355258,24.6236,20.416678Q24.58256,20.478096999999998,24.53033,20.53033Q24.4781,20.582563,24.41668,20.623601999999998Q24.35526,20.664641,24.287010000000002,20.69291Q24.21877,20.721178,24.14632,20.735589Q24.07387,20.75,24,20.75L20,20.75Q19.9261315,20.75,19.853682,20.735589Q19.781233,20.721178,19.712987,20.69291Q19.644742,20.664641,19.583322,20.623601999999998Q19.521903000000002,20.582563,19.46967,20.53033Q19.417437,20.478096999999998,19.376398000000002,20.416678Q19.335359,20.355258,19.30709,20.287013Q19.278822,20.218767,19.264411,20.146318Q19.25,20.0738685,19.25,20Q19.25,19.9261315,19.264411,19.853682Q19.278822,19.781233,19.30709,19.712987Q19.335359,19.644742,19.376398000000002,19.583322Q19.417437,19.521903000000002,19.46967,19.46967Q19.521903000000002,19.417437,19.583322,19.376398000000002Q19.644742,19.335359,19.712987,19.30709Q19.781233,19.278822,19.853682,19.264411Q19.9261315,19.25,20,19.25Z" fill-rule="evenodd" fill="#888888" fill-opacity="1"/></g></g></svg>