<?xml version="1.0" encoding="UTF-8"?>
<svg width="32px" height="32px" viewBox="0 0 32 32" version="1.1" xmlns="http://www.w3.org/2000/svg" xmlns:xlink="http://www.w3.org/1999/xlink">
    <!-- Generator: Sketch 61.2 (89653) - https://sketch.com -->
    <title>icon/店铺头部-normal</title>
    <desc>Created with Sketch.</desc>
    <g id="icon/店铺头部-normal" stroke="none" stroke-width="1" fill="none" fill-rule="evenodd">
        <g fill="#888888" fill-rule="nonzero" id="编组-4">
            <g transform="translate(2.000000, 4.000000)">
                <path d="M25,0 C26.6568542,0 28,1.34314575 28,3 L28,21 C28,22.6568542 26.6568542,24 25,24 L3,24 C1.34314575,24 0,22.6568542 0,21 L0,3 C0,1.34314575 1.34314575,0 3,0 L25,0 Z M25,2 L3,2 C2.48716416,2 2.06449284,2.38604019 2.00672773,2.88337887 L2,3 L2,21 C2,21.5128358 2.38604019,21.9355072 2.88337887,21.9932723 L3,22 L25,22 C25.5128358,22 25.9355072,21.6139598 25.9932723,21.1166211 L26,21 L26,3 C26,2.48716416 25.6139598,2.06449284 25.1166211,2.00672773 L25,2 Z M22,17 C22.5522847,17 23,17.4477153 23,18 C23,18.5522847 22.5522847,19 22,19 L6,19 C5.44771525,19 5,18.5522847 5,18 C5,17.4477153 5.44771525,17 6,17 L22,17 Z M12,5 C13.1045695,5 14,5.8954305 14,7 L14,12 C14,13.1045695 13.1045695,14 12,14 L7,14 C5.8954305,14 5,13.1045695 5,12 L5,7 C5,5.8954305 5.8954305,5 7,5 L12,5 Z M22,11 C22.5522847,11 23,11.4477153 23,12 C23,12.5522847 22.5522847,13 22,13 L17,13 C16.4477153,13 16,12.5522847 16,12 C16,11.4477153 16.4477153,11 17,11 L22,11 Z M12,7 L7,7 L7,12 L12,12 L12,7 Z M22,6 C22.5522847,6 23,6.44771525 23,7 C23,7.55228475 22.5522847,8 22,8 L17,8 C16.4477153,8 16,7.55228475 16,7 C16,6.44771525 16.4477153,6 17,6 L22,6 Z" id="形状"></path>
            </g>
        </g>
    </g>
</svg>
