<svg xmlns="http://www.w3.org/2000/svg" xmlns:xlink="http://www.w3.org/1999/xlink" fill="none" version="1.1" width="30" height="30" viewBox="0 0 30 30"><defs><clipPath id="master_svg0_1191_005671"><rect x="0" y="0" width="30" height="30" rx="0"/></clipPath></defs><g clip-path="url(#master_svg0_1191_005671)"><g><path d="M25.25,10.5Q25.25,10.4261315,25.264411,10.353682Q25.278822,10.281233,25.30709,10.212987Q25.335359,10.144742,25.376398000000002,10.083322Q25.417437,10.021903,25.46967,9.96967Q25.521903000000002,9.917437,25.583322,9.876398Q25.644742,9.835359,25.712987,9.80709Q25.781233,9.778822,25.853682,9.764410999999999Q25.9261315,9.75,26,9.75Q26.0738685,9.75,26.146318,9.764410999999999Q26.218767,9.778822,26.287013,9.80709Q26.355258,9.835359,26.416678,9.876398Q26.478096999999998,9.917437,26.53033,9.96967Q26.582563,10.021903,26.623601999999998,10.083322Q26.664641,10.144742,26.69291,10.212987Q26.721178,10.281233,26.735589,10.353682Q26.75,10.4261315,26.75,10.5L26.75,20Q26.75,20.07387,26.735589,20.14632Q26.721178,20.21877,26.69291,20.287010000000002Q26.664641,20.35526,26.623601999999998,20.41668Q26.582563,20.478099999999998,26.53033,20.5303Q26.478096999999998,20.5826,26.416678,20.6236Q26.355258,20.6646,26.287013,20.6929Q26.218767,20.7212,26.146318,20.735599999999998Q26.0738685,20.75,26,20.75Q25.9261315,20.75,25.853682,20.735599999999998Q25.781233,20.7212,25.712987,20.6929Q25.644742,20.6646,25.583322,20.6236Q25.521903000000002,20.5826,25.46967,20.5303Q25.417437,20.478099999999998,25.376398000000002,20.41668Q25.335359,20.35526,25.30709,20.287010000000002Q25.278822,20.21877,25.264411,20.14632Q25.25,20.07387,25.25,20L25.25,10.5Z" fill-rule="evenodd" fill="#888888" fill-opacity="1"/></g><g><path d="M3.25,10.5Q3.25,10.4261315,3.264411,10.353682Q3.278822,10.281233,3.30709,10.212987Q3.335359,10.144742,3.376398,10.083322Q3.417437,10.021903,3.46967,9.96967Q3.521903,9.917437,3.583322,9.876398Q3.644742,9.835359,3.712987,9.80709Q3.781233,9.778822,3.853682,9.764410999999999Q3.9261315,9.75,4,9.75Q4.0738685,9.75,4.146318,9.764410999999999Q4.218767,9.778822,4.287013,9.80709Q4.355258,9.835359,4.416678,9.876398Q4.478097,9.917437,4.53033,9.96967Q4.582563,10.021903,4.623602,10.083322Q4.664641,10.144742,4.69291,10.212987Q4.721178,10.281233,4.735589,10.353682Q4.75,10.4261315,4.75,10.5L4.75,20Q4.75,20.07387,4.735589,20.14632Q4.721178,20.21877,4.69291,20.287010000000002Q4.664641,20.35526,4.623602,20.41668Q4.582563,20.478099999999998,4.53033,20.5303Q4.478097,20.5826,4.416678,20.6236Q4.355258,20.6646,4.287013,20.6929Q4.218767,20.7212,4.146318,20.735599999999998Q4.0738685,20.75,4,20.75Q3.9261315,20.75,3.853682,20.735599999999998Q3.781233,20.7212,3.712987,20.6929Q3.644742,20.6646,3.583322,20.6236Q3.521903,20.5826,3.46967,20.5303Q3.417437,20.478099999999998,3.376398,20.41668Q3.335359,20.35526,3.30709,20.287010000000002Q3.278822,20.21877,3.264411,20.14632Q3.25,20.07387,3.25,20L3.25,10.5Z" fill-rule="evenodd" fill="#888888" fill-opacity="1"/></g><g><path d="M6.25,8.5L6.25,21.5Q6.25,22.432000000000002,6.9090092,23.091Q7.56802,23.75,8.5,23.75L21.5,23.75Q22.432000000000002,23.75,23.091,23.091Q23.75,22.432000000000002,23.75,21.5L23.75,8.5Q23.75,7.568019,23.091,6.9090099Q22.432000000000002,6.25,21.5,6.25L8.5,6.25Q7.56802,6.25,6.9090098,6.9090098Q6.25,7.568019,6.25,8.5ZM8.5,22.25Q7.75,22.25,7.75,21.5L7.75,8.5Q7.75,7.75,8.5,7.75L21.5,7.75Q22.25,7.75,22.25,8.5L22.25,21.5Q22.25,22.25,21.5,22.25L8.5,22.25Z" fill-rule="evenodd" fill="#888888" fill-opacity="1"/></g><g><path d="M22.529600000000002,18.58417L22.5303,18.58467Q22.6301,18.66493,22.750999999999998,18.70746Q22.8719,18.75,23,18.75Q23.0739,18.75,23.1463,18.735590000000002Q23.2188,18.72118,23.287,18.69291Q23.3553,18.66464,23.4167,18.6236Q23.4781,18.58256,23.5303,18.53033Q23.5826,18.4781,23.6236,18.41668Q23.6646,18.35526,23.6929,18.287010000000002Q23.7212,18.21877,23.7356,18.14632Q23.75,18.07387,23.75,18Q23.75,17.91584,23.7313,17.83377Q23.7127,17.7517,23.6763,17.67581Q23.6399,17.59992,23.5876,17.53398Q23.5353,17.468040000000002,23.4697,17.41532L23.469,17.4147L20.9157,15.3634Q20.592100000000002,15.103390000000001,20.177300000000002,15.08865Q19.7624,15.0739,19.4211,15.31026L16.92512,17.03901L12.3905,12.799852Q12.007380000000001,12.441702,11.48341,12.464127Q10.95944,12.486553,10.60833,12.876126L6.442881,17.497889999999998Q6.349758,17.601210000000002,6.299879,17.73106Q6.25,17.8609,6.25,18Q6.25,18.07387,6.264411,18.14632Q6.278822,18.21877,6.30709,18.287010000000002Q6.335359,18.35526,6.376398,18.41668Q6.417437,18.4781,6.46967,18.53033Q6.521903,18.58256,6.583322,18.6236Q6.644742,18.66464,6.712987,18.69291Q6.781233,18.72118,6.853682,18.735590000000002Q6.9261315,18.75,7,18.75Q7.159324,18.75,7.304889,18.68523Q7.450454,18.62046,7.557119,18.502110000000002L7.557567,18.50162L11.55212,14.06948L16.04807,18.27247Q16.37043,18.57383,16.81054,18.60601Q17.2506,18.63819,17.6134,18.38693L20.1218,16.64964L22.529600000000002,18.58417Z" fill-rule="evenodd" fill="#888888" fill-opacity="1"/></g><g><ellipse cx="17.5" cy="12.5" rx="1.5" ry="1.5" fill="#888888" fill-opacity="1"/></g></g></svg>