<?xml version="1.0" encoding="UTF-8"?>
<svg width="32px" height="32px" viewBox="0 0 32 32" version="1.1" xmlns="http://www.w3.org/2000/svg" xmlns:xlink="http://www.w3.org/1999/xlink">
    <!-- Generator: Sketch 61.2 (89653) - https://sketch.com -->
    <title>icon/标题文本-normal</title>
    <desc>Created with Sketch.</desc>
    <g id="icon/标题文本-normal" stroke="none" stroke-width="1" fill="none" fill-rule="evenodd">
        <g fill="#888888" id="编组-5">
            <g transform="translate(4.000000, 5.000000)">
                <path d="M23,11 C23.5522847,11 24,11.4477153 24,12 L24,21 C24,21.5522847 23.5522847,22 23,22 C22.4477153,22 22,21.5522847 22,21 L22,13 L21,13 C20.4477153,13 20,12.5522847 20,12 C20,11.4477153 20.4477153,11 21,11 L23,11 Z M21,1.95399252e-14 C21.5522847,1.95399252e-14 22,0.44771525 22,1 L22,4 C22,4.55228475 21.5522847,5 21,5 C20.4477153,5 20,4.55228475 20,4 L20,2 L12,2 L11.999,19.999 L14,20 C14.5522847,20 15,20.4477153 15,21 C15,21.5522847 14.5522847,22 14,22 L8,22 C7.44771525,22 7,21.5522847 7,21 C7,20.4477153 7.44771525,20 8,20 L9.999,19.999 L10,2 L2,2 L2,4 C2,4.55228475 1.55228475,5 1,5 C0.44771525,5 -2.22044605e-15,4.55228475 -2.22044605e-15,4 L-2.22044605e-15,1 C-2.22044605e-15,0.44771525 0.44771525,1.95399252e-14 1,1.95399252e-14 L21,1.95399252e-14 Z" id="形状"></path>
            </g>
        </g>
    </g>
</svg>