<svg xmlns="http://www.w3.org/2000/svg" xmlns:xlink="http://www.w3.org/1999/xlink" fill="none" version="1.1" width="30" height="30" viewBox="0 0 30 30"><defs><clipPath id="master_svg0_1191_005821"><rect x="0" y="0" width="30" height="30" rx="0"/></clipPath></defs><g clip-path="url(#master_svg0_1191_005821)"><g><path d="M6.25,8.5L6.25,21.5Q6.25,22.432000000000002,6.9090092,23.091Q7.56802,23.75,8.5,23.75L21.5,23.75Q22.432000000000002,23.75,23.091,23.091Q23.75,22.432000000000002,23.75,21.5L23.75,8.5Q23.75,7.568019,23.091,6.9090099Q22.432000000000002,6.25,21.5,6.25L8.5,6.25Q7.56802,6.25,6.9090098,6.9090098Q6.25,7.568019,6.25,8.5ZM8.5,22.25Q7.75,22.25,7.75,21.5L7.75,8.5Q7.75,7.75,8.5,7.75L21.5,7.75Q22.25,7.75,22.25,8.5L22.25,21.5Q22.25,22.25,21.5,22.25L8.5,22.25Z" fill-rule="evenodd" fill="#888888" fill-opacity="1"/></g><g transform="matrix(0,1,-1,0,30,-8)"><path d="M26.68061,15.875Q27.041449999999998,16.5,26.68061,17.125Q26.31976,17.75,25.59808,17.75L20.40192,17.75Q19.680236,17.75,19.319392,17.125Q18.9585483,16.5,19.319392,15.875L21.91747,11.375Q22.27831,10.75,23,10.75Q23.72169,10.75,24.08253,11.375L26.68061,15.875L26.68061,15.875ZM25.38157,16.625L22.78349,12.125Q22.85566,12.25,23,12.25Q23.14434,12.25,23.21651,12.125L20.61843,16.625Q20.6906,16.5,20.61843,16.375Q20.54626,16.25,20.40192,16.25L25.59808,16.25Q25.45374,16.25,25.38157,16.375Q25.3094,16.5,25.38157,16.625L25.38157,16.625Z" fill="#888888" fill-opacity="1"/></g></g></svg>